<svg width="1115" height="56" viewBox="0 0 1115 56" xmlns="http://www.w3.org/2000/svg"><title>customers-logos</title><g fill="none" fill-rule="evenodd"><g fill="#4A4A4A"><path d="M600.94 16c-4.448 0-8.056 3.65-8.056 8.15s3.608 8.15 8.056 8.15c4.449 0 8.057-3.65 8.057-8.15S605.389 16 600.94 16zm6.277 3.6c-.395.3-.84.55-1.285.75-.247-.55-.593-1.05-.939-1.55.346-.2.643-.45.94-.7.444.5.889.95 1.284 1.5zm-3.41-2.7c.642.25 1.236.6 1.829 1.05-.297.25-.593.45-.89.65-.395-.45-.84-.9-1.335-1.25.149-.15.297-.3.396-.45zm.642 1.85c-.444.25-.89.45-1.383.55-.198-.45-.445-.9-.692-1.35.247-.1.494-.25.74-.45.495.4.94.8 1.335 1.25zm-.939-2c-.099.15-.247.25-.346.35-.444-.3-.89-.55-1.334-.75.544.1 1.087.2 1.68.4zm-.642.6c-.198.15-.396.25-.643.35-.247-.35-.494-.75-.79-1.1.494.2.988.45 1.433.75zm-1.78-.7c.297.35.594.75.84 1.15-.296.1-.543.15-.84.15v-1.3zm0 1.65c.346 0 .692-.1 1.038-.2.248.4.445.85.643 1.3-.544.15-1.087.2-1.68.25V18.3zm-.345-1.65v1.3c-.297 0-.544-.05-.84-.15.246-.4.543-.75.84-1.15zm-1.137 1.05c-.198-.1-.445-.2-.643-.35.445-.3.89-.55 1.384-.75-.247.35-.494.7-.741 1.1zm.445-1.35c-.495.2-.94.45-1.384.75-.149-.1-.247-.25-.346-.35.593-.2 1.186-.3 1.73-.4zm5.535 14.05c-1.087-.6-1.087-1.4-1.038-1.75.05-.3.247-.15.396-.15.692 0 1.433-.2 2.372-1.15 1.038-1.05 1.335-3.45-.247-4.95-1.73-1.65-3.51-1.35-4.695.1-.248.3-.84.55-1.335.5-.741-.05-.296.55-.296.7 0 .15-.1.2-.198.2-.247-.05-.148.3-.148.45 0 .1-.1.15-.149.15-.296 0-.247.3-.247.35 0 .1 0 .2-.099.25-.099.05-.197.3-.197.5 0 .35.296.6.84 1s.593.75.593 1.05c0 .25.05.7.148 1 .148.35.1 1-.593 1-.89.05-2.471.75-2.57.8-.494.2-1.137.25-1.68.1-.297-.2-.544-.4-.791-.65-.1-.35.099-.75.247-1 .296.3.741.3.988.3s1.483-.2 1.631-.25c.149-.05.248-.05.346 0 .445.15 1.088.2 1.335-.65.247-.9-.346-.65-.445-.6-.099.05-.198.05-.148-.05.099-.25-.05-.2-.149-.2-.247 0-.593.25-.691.35-.1.1-.198.1-.248.05-.346-.15-1.285.05-1.63-.45.049-.15-.248-2.3-.396-2.7-.05-.1-.05-.2.05-.35.247-.4.938.05 1.284 0 .445 0 .544-.2.643-.35.099-.15.198-.05.247-.1.099-.05 0-.15.05-.2.049-.05.049-.05.148-.1.099-.05 0-.2.05-.25.098-.15.395-.05.246-.45-.099-.25.05-.5.149-.7.197-.3 1.038-1.45-.396-2.7-1.384-1.2-2.817-1.1-3.756-.1-.94 1-.445 2.45-.346 2.85.099.4-.198.75-.494.9-.247.1-.84.5-1.236.9.05-3.15 1.977-5.9 4.844-7.1.099.15.247.3.395.45-.296.25-1.038.9-1.038.9s.099 0 .198.05c.05 0 .198.05.198.05s.642-.55.89-.75l.74.45c-.148.25-.494.9-.494.9s.1.05.149.1l.098.1s.396-.75.544-1c.346.1.643.15.989.2v1.35c-.198 0-.692-.05-.89-.05h-.148l.05.1c.049.1.098.15.147.2v.05h.05c.148 0 .593.05.741.05v2.45h.346V22c.494 0 .89-.05 1.384-.1l.445-.4h-.247c-.544.05-.989.1-1.384.15h-.198V20c.593 0 1.236-.1 1.829-.25.148.4.445 1.4.445 1.4l.296-.1s-.296-.95-.444-1.4a7.25 7.25 0 0 0 1.433-.6c.346.45.692.95.939 1.5-.247.1-.692.25-.692.25.346.05.593.1.593.1l.198-.1c.05.05.099.2.099.2l.444.2-.049-.1s-.148-.35-.198-.45c.445-.25.89-.5 1.335-.8.84 1.25 1.235 2.75 1.235 4.3.248 2.55-.939 4.8-2.817 6.25zm-13.493-12.25l-.148.1c-.494.4-1.532 1.55-1.384 2.75v.1l.05.25.148-.15c.642-.6 1.136-1.65 1.384-2.85l.049-.35-.099.15m-2.175 2.15l-.049.15c-.099.2-.198.65-.297 1.2-.098.8-.098 1.95.594 2.8l.098.1.1.1.098-.5c.099-.9-.05-2.85-.346-3.7l-.099-.3-.099.15m-.79 3.3v.15c-.05.85 0 2.85 1.63 3.95l.198.15v-.25c-.05-.75-.939-3.1-1.581-3.9l-.198-.25-.05.15m.248 3.65l.05.15c.246 1.15 1.334 3.05 3.014 3.6l.247.1-.099-.25c-.296-.85-1.927-2.9-3.015-3.6l-.247-.15.05.15m3.41-7.35l-.148.1c-1.285.8-1.829 1.7-1.829 2.9v.25l.198-.15c.692-.55 1.532-2.05 1.78-2.85l.098-.3-.099.05m-.741 2.55l-.1.1c-.345.3-1.383 1.45-1.284 2.85 0 .2.05.45.148.7l.05.2.148-.2c.494-.7 1.137-2.6 1.137-3.45v-.25l-.1.05m.05 2.45l-.05.1c-.543.8-.79 1.6-.79 2.35 0 .55.198 1.1.544 1.6l.098.15.1-.15c.246-.45.395-1.85.395-2.95 0-.4-.05-.7-.1-.95l-.049-.25-.148.1m.643 2.55l-.05.1c-.148.5-.247 1-.197 1.5.049 1.1.494 1.9 1.383 2.5l.149.1.05-.2v-.15c0-.9-.693-3.1-1.187-3.75l-.148-.2v.1m-1.78 3.45l.05.1c.692 1.15 1.828 2.65 4.003 2.25l.198-.05-.099-.15c-.395-.6-3.015-2.1-3.954-2.25l-.247-.05.05.15m3.163 2.9l-.346.1.346.15c1.383.55 3.064.75 4.102.4.395-.15.593-.35.89-.6 1.73.2 3.41 1.65 4.349 2.85l.05.05.098-.05c.099-.05.297-.15.346-.25l.05-.1-.05-.1c-.988-1.3-2.57-2.15-2.62-2.15-1.482-.65-3.953-1.2-7.215-.3m.098-3.65v.1c.198 1.3.742 3 2.916 2.85h.149l-.05-.15c-.148-.6-2.125-2.3-2.866-2.8l-.198-.1.05.1m15.421-12.1l.049.35c.197 1.2.691 2.25 1.383 2.85l.149.15.05-.25v-.1c.147-1.25-.94-2.35-1.385-2.75l-.148-.1-.099-.15m2.274 2.1l-.1.3c-.345.85-.493 2.8-.395 3.7l.1.5.098-.1.099-.1c.692-.85.741-2 .593-2.8-.05-.55-.198-1-.297-1.2l-.049-.15-.05-.15m.841 3.3l-.198.25c-.692.85-1.581 3.15-1.581 3.9v.25l.197-.15c1.631-1.1 1.68-3.1 1.631-3.95v-.15l-.05-.15m-.246 3.65l-.247.15c-1.038.65-2.67 2.7-3.015 3.6l-.1.25.248-.1c1.68-.55 2.817-2.45 3.015-3.6l.05-.15.049-.15m-3.509-7.3l.098.3c.248.85 1.038 2.3 1.73 2.9l.198.15v-.25c.05-1.15-.494-2.1-1.73-2.9l-.148-.1-.148-.1m.692 2.6v.25c-.05.85.642 2.75 1.136 3.45l.149.2.049-.2c.099-.25.148-.45.148-.7.1-1.4-.939-2.5-1.285-2.85l-.099-.1-.098-.05m0 2.4l-.05.25c-.05.2-.099.55-.099.95-.05 1.1.149 2.5.396 2.95l.098.15.1-.15c.345-.5.494-1 .494-1.6 0-.75-.248-1.55-.791-2.35l-.05-.1-.098-.1m-.594 2.55l-.148.2c-.494.65-1.137 2.9-1.186 3.75v.15l.05.2.148-.1c.89-.6 1.384-1.45 1.384-2.5 0-.5-.05-1-.248-1.5l-.049-.1.05-.1m1.878 3.45l-.248.05c-.939.15-3.558 1.65-3.954 2.25l-.098.15.197.05c2.175.4 3.312-1.1 4.004-2.25l.05-.1.049-.15"/><path d="M600.594 34.15c-.05.05-1.63.85-2.62 2.15l-.049.1.05.05c.05.05.247.2.346.25l.099.05.049-.05c.939-1.2 2.62-2.7 4.35-2.85.296.25.494.5.889.6.989.35 2.718.15 4.102-.4l.346-.15-.346-.1c-3.36-.9-5.832-.35-7.216.35m7.068-4.15l-.198.1c-.692.5-2.718 2.2-2.866 2.8l-.05.15h.149c2.174.2 2.718-1.55 2.916-2.85v-.1l.05-.1m-55.11-13.2h2.718v2.5h-2.718v-2.5zm2.52 17.6H552.8V22.15h2.274V34.4zm-19.572-12.25h2.274V34.4h-2.224v-1.8h-.05c-.939 1.55-2.471 2.15-4.152 2.15-2.52 0-4.003-1.95-4.003-4.4v-8.2h2.274v7.25c0 2.1.494 3.7 2.669 3.7.939 0 2.224-.5 2.718-1.75.445-1.15.445-2.6.445-2.9v-6.3m6.919 1.85c.84-1.55 2.521-2.15 3.707-2.15.84 0 4.597.2 4.597 4.15v8.45H548.4v-7.7c0-2.05-.84-3.1-2.768-3.1 0 0-1.235-.05-2.224.9-.346.35-.988.9-.988 3.25v6.65h-2.274V22.2h2.224V24m22.292 2.1c-.099-1.55-.84-2.6-2.471-2.6-2.175 0-3.015 1.9-3.015 4.8 0 2.85.84 4.75 3.015 4.75 1.532 0 2.422-1 2.57-2.75h2.273c-.197 2.75-2.224 4.4-4.843 4.4-3.855 0-5.388-2.75-5.388-6.35 0-3.55 1.78-6.55 5.586-6.55 2.52 0 4.448 1.65 4.547 4.25h-2.274m5.783 2.65c-.148 2.15.692 4.35 3.015 4.35 1.78 0 2.669-.7 2.916-2.5h2.422c-.346 2.75-2.472 4.15-5.338 4.15-3.855 0-5.388-2.75-5.388-6.35 0-3.55 1.78-6.55 5.585-6.55 3.609.1 5.289 2.4 5.289 5.75v1.15h-8.501zm6.129-1.6c.049-2.05-.84-3.6-3.065-3.6-1.878 0-3.015 1.6-3.015 3.6h6.08zm4.942 7.25V23.8h-2.076v-1.6h2.076v-2.6c.099-2.65 2.076-3.35 3.756-3.35.544 0 1.088.15 1.631.25v1.9c-.395 0-.79-.05-1.136-.05-1.285 0-2.027.35-1.977 1.65v2.25h2.767v1.6h-2.767V34.4h-2.274"/></g><path d="M427.695 31.94h-.523l-.175-.026-.1-.025-.124-.05-.1-.05-.05-.049-.05-.025-.075-.074-.05-.05-.05-.1-.074-.124-.05-.125-.05-.199-.05-.298v-1.17l-.025-.248v-1.941l-.024-.249v-.92l-.025-.25v-.447l-.025-.224v-.448l-.025-.224V24.4l-.025-.224v-.199l-.025-.224v-.199l-.025-.199v-.224l-.025-.199v-.199l-.025-.174-.025-.199v-.199l-.025-.174-.025-.174-.025-.2v-.174l-.024-.174-.025-.149-.025-.174-.025-.174-.025-.15v-.149l-.025-.15-.025-.149-.025-.149-.025-.124-.05-.15-.025-.124-.025-.124-.025-.125-.024-.124-.025-.1-.05-.124-.025-.1-.025-.1-.025-.099-.05-.1-.025-.074-.025-.074-.05-.1-.025-.075-.05-.05-.024-.074-.05-.05-.025-.074-.05-.05-.05-.025-.025-.05-.05-.025-.05-.05-.024-.024-.05-.025h-.05l-.05-.025h-3.066.1l.05.025h.05l.024.025.05.025.05.05.05.024.025.05.05.025.025.05.05.074.05.05.024.075.05.05.025.074.025.1.05.074.025.075.025.1.05.099.024.1.025.099.05.124.025.1.025.124.025.125.025.124.025.124.025.15.025.124.025.15.024.149.025.149.025.15.025.149.025.174.025.174.025.15.025.173v.175l.025.199.025.174.025.174v.199l.025.199v.174l.025.2.025.198v.224l.024.2v.198l.025.224v.2l.025.223v.448l.025.224v.224l.025.224v.697l.025.223v.697l.025.249v3.359l.025.597.075.523.1.472.124.398.175.374.199.298.15.2.15.148.248.224.25.175.299.124.299.124.399.1.498.075.723.024.648-.024.3-.025v-2.613zm-7.08-.026h-.074v-.025h-.025l-.025-.024-.025-.025v-.025l-.025-.025-.025-.025-.025-.025-.025-.025v-.025l-.025-.05-.025-.024-.025-.05-.025-.025v-.05l-.024-.05-.025-.05-.025-.049-.025-.05-.025-.05v-.05l-.025-.074-.025-.05-.025-.074-.025-.05-.025-.075-.025-.074v-.075l-.025-.075-.025-.074-.025-.075-.024-.075-.025-.074-.025-.1-.025-.074-.025-.1-.025-.075-.025-.1-.025-.099-.025-.1-.025-.099-.025-.1-.025-.099-.025-.1-.025-.099-.024-.1-.025-.124-.025-.1-.025-.124-.025-.1-.025-.124-.025-.124-.025-.1-.05-.124-.025-.124-.025-.125-.025-.124-.024-.124-.025-.125-.025-.124-.05-.15-.025-.124-.025-.124-.025-.15-.05-.124-.025-.15-.025-.124-.025-.149-.05-.124-.024-.15-.025-.149-.05-.124-.025-.15-.05-.149-.025-.15-.025-.149-.05-.149-.025-.15-.05-.148-.024-.15-.05-.149-.025-.15-.05-.149-.05-.149-.025-.124v-.025l-.05-.15-.025-.149-.05-.149-.05-.15-.05-.149-.024-.174-.05-.149-.05-.15-.05-.149-.05-.149-.05-.174-.05-.15-.05-.149-.024-.149-.075-.15-.05-.148-.05-.15-.05-.174-.05-.15-.05-.149-.074-.149-.05-.15-.05-.148-.074-.15-.05-.149-.075-.15-.05-.149-.075-.124-.074-.15-.05-.148-.075-.15-.075-.124-.075-.15-.074-.149-.075-.124-.075-.15-.1-.124-.074-.15-.1-.124-.075-.124-.1-.15-.1-.124-.1-.124-.099-.124-.1-.125-.1-.124-.124-.125-.1-.124-.124-.1-.125-.124-.125-.124-.124-.1-.15-.1-.15-.124-.124-.1-.174-.099-.15-.1-.175-.099-.15-.1-.199-.099-.174-.1-.2-.074-.199-.1-.224-.074-.225-.1-.224-.074-.25-.075-.273-.075-.275-.074-.299-.075-.299-.075-.349-.05-.349-.074-.374-.05-.424-.05-.448-.074-.499-.05-.548-.05-.599-.05-.648-.024-.772-.05-.848-.025-.972-.05-1.147-.025-1.271-.025-1.346-.024h-.025l.075.024.074.025.1.025.075.05.075.025.074.05.075.024.075.05.075.05.075.05.1.074.074.05.075.05.075.075.074.05.075.074.075.075.075.074.075.075.074.075.1.074.075.1.075.074.074.1.075.074.075.1.075.1.075.1.074.099.075.1.075.099.075.1.074.124.075.1.075.099.075.124.075.124.1.1.074.124.075.125.075.124.074.125.075.124.075.124.075.125.075.15.074.123.075.125.075.15.075.124.074.149.075.124.075.15.075.149.075.124.074.15.075.149.075.15.075.123.05.15.074.15.075.148.075.15.075.149.075.15.074.148.075.15.075.15.075.173.074.15.075.149.075.15.075.148.075.15.074.149.075.174.05.15.075.149.075.149.074.15.075.173.075.15.075.149.075.15.074.149.075.149.05.15.075.148.074.15.075.149.075.15.075.149.075.149.05.15.074.148.075.15.075.149.075.15.074.149.075.124.05.15.075.149.075.124.074.15.075.124.05.149.075.124.075.15.074.124.075.124.075.15.05.124.075.125.074.124.075.124.05.125.075.124.075.125.074.1.075.123.05.125.075.1.075.124.074.1.05.124.075.1.075.099.075.1.05.099.074.1.075.099.05.1.075.099.074.1.075.074.05.1.075.074.075.1.05.074.074.075.075.075.05.074.075.075.074.075.075.074.05.075.075.05.075.074.05.05.074.075.05.05.075.05.075.049.05.05.074.05.075.05.05.05.075.024.075.05.05.025.074.05.05.024.075.025.05.025.075.025.074.025.05.025.075.025.05.024h.075l.074.025h.324zm8.451-14.132h2.967v2.662h-2.967v-2.662zm0 4.702h2.991v11.993h-2.99V22.484zm3.564 0h3.167l2.492 7.44c.225.696.4 1.816.424 1.816h.05c.025 0 .2-1.095.424-1.816l2.493-7.44h3.166l-4.313 11.993h-3.54l-4.362-11.993zm17.774-.274c3.465 0 5.335 2.514 5.335 5.698 0 .349-.075 1.145-.075 1.145h-8.3c.199 2.09 1.819 3.185 3.614 3.185 1.944 0 3.465-1.319 3.465-1.319l1.146 2.14s-1.844 1.717-4.836 1.717c-3.988 0-6.456-2.862-6.456-6.295 0-3.683 2.518-6.27 6.107-6.27zm2.294 4.803c-.05-1.618-1.072-2.488-2.368-2.488-1.52 0-2.593.945-2.867 2.488h5.235zm4.487 4.877s1.321 1.443 3.54 1.443c1.271 0 2.393-.647 2.393-1.891 0-2.588-6.382-1.966-6.382-5.823 0-2.114 1.92-3.284 4.063-3.284 2.493 0 3.665 1.294 3.665 1.294l-.723 1.22s-1.022-1.096-2.966-1.096c-1.197 0-2.369.523-2.369 1.842 0 2.612 6.382 1.915 6.382 5.822 0 1.94-1.67 3.309-4.063 3.309-2.867 0-4.388-1.717-4.388-1.717l.848-1.12zm9.871-7.763h-1.545v-1.344h1.57v-3.409h1.57v3.409h2.967v1.344h-2.966v5.871c0 2.787 1.77 3.135 2.667 3.135.324 0 .548-.05.548-.05v1.444s-.249.05-.673.05c-1.37 0-4.138-.448-4.138-4.404v-6.046zm6.108-1.468h1.57v2.09c0 .522-.05.945-.05.945h.05c.574-1.791 1.895-3.16 3.74-3.16.323 0 .623.075.623.075v1.567s-.275-.05-.599-.05c-1.67 0-2.916 1.32-3.44 3.06a8.107 8.107 0 0 0-.324 2.315v5h-1.595V22.66h.025zm11.916-.299c3.265 0 4.96 2.513 4.96 5.474 0 .274-.05.82-.05.82h-9.099c.075 3.036 2.144 4.679 4.587 4.679 2.169 0 3.615-1.444 3.615-1.444l.723 1.22s-1.72 1.642-4.388 1.642c-3.54 0-6.207-2.538-6.207-6.196.025-3.856 2.668-6.195 5.858-6.195zm3.34 4.976c-.1-2.463-1.596-3.632-3.366-3.632-1.969 0-3.689 1.244-4.088 3.632h7.454zm9.747-.174h.648v-.299c0-2.289-1.247-3.06-2.942-3.06-1.944 0-3.34 1.12-3.34 1.12l-.748-1.22s1.546-1.343 4.213-1.343c2.842 0 4.437 1.568 4.437 4.553v7.589h-1.52v-1.294c0-.597.05-.995.05-.995h-.05s-.998 2.563-3.964 2.563c-1.97 0-4.039-1.145-4.039-3.509 0-4.005 5.21-4.105 7.255-4.105zm-2.967 6.245c2.269 0 3.64-2.364 3.64-4.404v-.522h-.698c-1.87 0-5.584.074-5.584 2.687 0 1.095.872 2.24 2.642 2.24zm7.753-10.748h1.57v1.766c0 .523-.05.946-.05.946h.05c.574-1.593 2.443-2.986 4.288-2.986 2.193 0 3.315 1.02 3.664 2.96h.05c.648-1.592 2.368-2.96 4.362-2.96 2.867 0 3.94 1.667 3.94 4.578v7.539h-1.596v-7.14c0-1.942-.4-3.534-2.568-3.534-1.82 0-3.29 1.592-3.74 3.334-.174.523-.198 1.095-.198 1.717v5.598h-1.596v-7.14c0-1.792-.25-3.534-2.493-3.534-1.944 0-3.39 1.667-3.888 3.483a6.572 6.572 0 0 0-.175 1.568v5.598h-1.62V22.66zM394.424 30.16l-.343-1.216-.322-1.111-1.15-3.868c-.164-.557-.328-1.113-.482-1.653l-.026-.094 2.254-2.792-1.06-3.426-11.353.011-.347.57-.136-.57-11.43.013-.28.647-.11-.648-11.521.013-.203.776-.077-.776-11.638.012-.111 1.269-.036-1.27-11.697.014-.04 1.16-.12-1.162-11.598.013-.078.748-.207-.747-5.592.005-.447 3.217-.254-.664-.123-.012-.978-2.54-5.521.006-.112.617-.291-.616-5.467.005-.124.576-.322-.576-5.42.006-.631 2.505-1.469.001-.281 1.095-2.553-3.596-5.275.006-4.508 14.437 4.792 4.568h5.222l.83-3.217.404.464h1.397l2.326 2.752 5.366-.001.106-.52.38.52h5.406l.097-.563.346.563 5.458-.001.422-3.018 1.408 3.018 5.531-.001.07-.69.24.69 11.507-.001.041-1.098.127 1.098 11.599-.002.111-1.2.04 1.2 5.69-.001.177-.843.054.843 5.62-.001.239-.724.07.724h5.56l.285-.644.083.644h5.507l.33-.588.093.587 5.459-.001 3.156-4.639-.151-.743 1.748-.001 2.47-3.527 2.125 8.909 5.358-.001 4.472-4.593-.092-.348zm-54.202-3.526l.058-1.971 5.478-.003.048-.655.086 2.627-5.67.002z" fill="#4A4A4A"/><path fill="#F3F3F3" d="M292.969 19.76l-.73 2.621h3.235l.68-2.588 1.478-.002.63-2.51 4.262-.004-3.004 13.318-4.596.001 1.377-5.655-1.659-.002-.717 2.755-2.977.001.742-2.757-1.681.005-1.621 5.655-4.511.003 4.141-13.31 4.184-.004-.694 2.417zm15.433-2.456l-2.54 13.321-4.596.002 2.874-13.32z"/><path fill="#F2F2F2" d="M314.618 26.305l.381-2.754-1.665-.032-1.1 7.072h-4.603l2.411-13.322 4.267-.004-.374 2.467 1.461.038-.346 2.576 1.642.024.701-5.109 4.27-.003-1.496 13.33-4.607.002.576-4.246z"/><path fill="#F3F3F3" d="M333.021 27.84l-.116 2.744-10.978.003 1.367-13.331 10.177-.01-.101 2.36-5.987.005-.188 2.72 6.06.017-.11 2.576-6.174.004-.207 2.887zm59.702-10.655l.73 2.367-2.971.002.018.073c.124.518.256 1.044.4 1.582a145.223 145.223 0 0 0 .941 3.333l.509 1.713.311 1.054c.107.356.213.714.318 1.074.107.362.211.725.316 1.088.103.364.207.728.306 1.092l-4.638.001-2.916-11.005-2.974.003-.586-2.366 10.236-.01zm-10.678 5.061l.632 2.647-6.206.004 1.15 5.671-4.63.001-2.371-13.361 10.224-.01.565 2.365-6.02.005.544 2.676zm-17.791 4.015l.571 4.312H360.2l-1.431-13.353 10.212-.01 2.24 13.361-4.627.001-.602-4.304-1.737-.007zm2.998-5.244l-.26-1.696-2.021.002.186 1.554-1.588-.013-.204-1.54-1.956.003.206 1.694h1.795l.083.623h-.903l.33 2.613h1.084l-.082-.89 1.607-.006.134.894h1.098l-.385-2.601-.895-.005-.078-.631 1.85-.001zm-11.02 2.643l1.526-.002.676 6.916-4.62.003-.413-5.63-1.71-.044.355 5.674-4.62.002-.496-13.347 10.2-.01.484 4.952-1.522-.001.14 1.487zm-3.014-1.325l-.2-2.746h-1.66l.171 2.746h1.689zM339.442 19.6l5.918-.005-.066-2.362-10.19.012-.435 13.337 10.993-.003-.076-2.742-6.286.002z"/><path d="M284.312 31.03l3.27 3.231c.238.236.706.43 1.037.43h2.878c.332 0 .418-.204.192-.455l-2.89-3.184c-.225-.249-.682-.454-1.014-.454l-3.305.002c-.332 0-.407.194-.168.43zm11.215-.433c-.331 0-.43.214-.216.476l2.553 3.14c.212.264.658.478.99.478h3.018c.331 0 .44-.225.243-.5l-2.235-3.097c-.199-.275-.632-.5-.964-.499l-3.389.002z" fill="#E9E9E9"/><path d="M291.55 27.695c-.331 0-.423.209-.203.465l2.84 3.307c.221.256.622.454.894.44.27-.013.336-.253.145-.533l-.198-.289c-.19-.28-.275-.778-.186-1.108l.055-.206c.09-.329-.007-.818-.213-1.086l-.386-.503c-.206-.268-.645-.487-.977-.487h-1.77zm10.319 2.932c-.332 0-.442.226-.246.502l2.184 3.06c.195.276.628.502.96.502h2.972c.331 0 .459-.237.282-.526l-1.839-3.013c-.176-.29-.591-.527-.923-.526l-3.39.001zm6.365-.035c-.331 0-.461.238-.288.53l1.771 2.99c.174.292.585.53.917.53h2.925c.332 0 .485-.25.338-.558l-1.397-2.936c-.146-.307-.537-.558-.868-.558l-3.398.002zm7.929-.002c-.332 0-.489.253-.35.563l1.334 2.974c.14.31.525.564.856.564h3.02c.332 0 .51-.263.395-.584l-1.044-2.936c-.114-.321-.478-.584-.81-.584l-3.401.002zm6.367-.003c-.331 0-.511.264-.4.585l.984 2.836c.111.323.474.586.806.586h8.932c.331 0 .565-.278.518-.615l-.381-2.78c-.047-.34-.357-.616-.687-.616l-9.772.004zm12.741-.005c-.33 0-.573.278-.538.619l.3 2.872c.037.34.337.618.668.618h8.886c.332 0 .635-.278.674-.617l.33-2.877c.039-.34-.201-.618-.532-.617l-9.788.002zm12.759-.003c-.333 0-.638.278-.68.617l-.348 2.83c-.042.34.195.617.527.617h2.974c.332 0 .666-.273.743-.605l.66-2.857c.076-.333-.132-.604-.464-.604l-3.413.002zm6.386-.003c-.332 0-.665.273-.742.606l-.646 2.808c-.077.332.132.605.464.605h2.973c.331 0 .692-.264.802-.587l.968-2.847c.109-.323-.072-.587-.404-.586l-3.415.001zm6.386-.002c-.332 0-.694.263-.804.586l-.992 2.897c-.11.322.07.586.4.586h2.972c.331 0 .718-.254.859-.564l1.333-2.943c.14-.31-.016-.564-.347-.564l-3.42.002zm6.394-.002c-.332 0-.722.251-.867.559l-1.394 2.953c-.145.308.008.559.339.559h3.066c.332 0 .738-.242.904-.538l1.674-2.995c.167-.296.03-.538-.301-.538h-3.42zm6.398-.003c-.331 0-.744.24-.916.531l-1.779 3.012c-.172.291-.042.53.289.53h3.018c.332 0 .761-.227.953-.506l2.113-3.061c.192-.28.078-.507-.254-.507l-3.424.001zm15.972-.005c-.331 0-.782.21-1.001.466l-2.654 3.098c-.22.257-.128.466.204.466h2.877c.333 0 .797-.196 1.035-.434l3.145-3.164c.236-.238.159-.434-.173-.433l-3.433.001z" fill="#E9E9E9"/><path d="M287.038 26.28c.103-.325-.084-.591-.415-.591h-.772c-.332 0-.603.065-.603.145 0 .08.271.145.603.145h.382c.331 0 .518.266.415.59l-.703 2.206c-.103.326.084.592.415.592h2.369c.332 0 .603-.066.603-.146 0-.08-.271-.145-.603-.145h-1.98c-.331 0-.518-.266-.414-.59l.056-.175c.103-.325.46-.59.791-.59h1.828c.332 0 .604-.066.604-.145 0-.08-.272-.145-.604-.145h-1.736c-.331 0-.518-.266-.414-.591l.178-.56zm12.606-6.203c.045-.338-.19-.616-.522-.616l-.916.002c-.332 0-.626.065-.656.144-.03.079.218.144.55.144h.7c.332 0 .567.277.522.616l-.128.979c-.045.338-.353.616-.684.616h-2.896c-.332 0-.603.065-.603.144 0 .08.271.146.603.146h5.693c.332 0 .603-.066.603-.146 0-.079-.27-.144-.603-.144H300c-.331 0-.567-.278-.522-.616l.167-1.269zm3.978 8.89c.06-.337.021-.468-.085-.293-.107.174-.244.592-.305.929l-.09.493c-.061.335.041.842.227 1.126l.152.23c.187.283.484.625.662.76.177.136.171.015-.013-.27l-.51-.784c-.184-.285-.286-.792-.226-1.128l.188-1.063zm6.278.705c.073-.334.037-.46-.079-.28a2.912 2.912 0 0 0-.307.762c-.055.238-.011.671.097.961.107.291.293.66.412.818.12.158.134.023.029-.302l-.153-.474a2.754 2.754 0 0 1-.06-1.197l.062-.288zm-1.136-3.371c-.331-.017-.605.034-.61.114-.004.08.264.159.595.176l3.37.176c.332.017.69.17.795.34.105.167.245.27.31.228.065-.044.015-.246-.113-.45-.126-.203-.503-.384-.832-.4l-3.515-.184zm7.591.088c-.33.014-.6.092-.596.171.003.08.277.133.607.119l1.958-.086c.331-.015.562.25.512.589l-.409 2.79c-.05.338-.013.883.083 1.21l.085.293c.097.327.288.76.427.961.139.202.174.099.079-.229l-.303-1.045a3.427 3.427 0 0 1-.082-1.21l.45-3.076c.049-.338-.181-.603-.513-.588l-2.298.1zm.671-6.944c-.013.079.243.19.571.247l3.337.404c.328.042.598.01.598-.07s-.27-.18-.598-.222l-3.29-.398c-.327-.057-.605-.039-.618.04m7.261 8.752a.59.59 0 0 0-.582-.621h-1.193c-.332 0-.604.065-.604.145 0 .08.272.145.604.145h.9a.59.59 0 0 1 .583.621l-.048 1.436a5.36 5.36 0 0 0 .128 1.222l.223.898c.083.331.237.764.344.961.107.199.134.087.06-.246l-.36-1.64a6.01 6.01 0 0 1-.113-1.227l.058-1.694zm7.457-.275a.64.64 0 0 1-.624.62h-.912a.615.615 0 0 0-.603.623v.934c0 .342.063.622.141.622.078 0 .14-.28.14-.622v-.644c0-.342.272-.62.604-.62h.903a.64.64 0 0 0 .623-.623l.01-.3c.011-.343-.043-.624-.12-.628-.078-.002-.15.275-.162.616v.022zm11.546.647c-.065.127-.09.51-.054.85l.06.586c.034.34.025.895-.02 1.233l-.397 2.962c-.045.338-.004.611.09.607.095-.004.207-.286.248-.625l.352-2.938c.041-.34.046-.896.01-1.235l-.108-1.053c-.036-.34-.117-.514-.182-.387m-7.393-7.044c.155.08.546.207.87.283l2.323.427c.304.136.579.187.609.114.031-.074-.201-.222-.516-.33l-2.976-.522c-.325-.065-.465-.051-.31.028m13.075.145c.02.187.307.34.64.34h.263c.33 0 .644.014.693.031.05.018.237.155.303.114.066-.04.018-.155-.107-.253s-.513-.18-.844-.181h-.056c-.332 0-.634-.28-.67-.619l-.37-3.427c-.038-.34-.13-.61-.207-.601-.077.008-.11.294-.073.633l.293 2.717a.54.54 0 0 1-.537.618h-.957c-.331 0-.602.065-.602.144 0 .08.271.145.602.145h.989c.331 0 .62.153.64.34m-.403 6.818c.022.341-.095.863-.26 1.16l-.252.292c-.077.333-.079.618-.003.635.076.017.221-.236.322-.562 0 0 .038-.142.16-.32.121-.18.256-.328.297-.328.042 0 .058-.28.035-.62l-.105-1.567a.566.566 0 0 1 .562-.62h2.259c.331 0 .602-.065.602-.145 0-.08-.271-.146-.602-.146h-2.56a.568.568 0 0 0-.563.62l.108 1.602zm-1.688 4.894c-.006.08.26.165.59.189l3.352.25c.33.024.606-.021.612-.1.005-.08-.261-.165-.592-.19l-3.35-.248c-.33-.025-.606.02-.612.099m19.566-6.202c-.332.005-.602.072-.602.152s.272.142.604.14l4.098.469c.33.033.622-.002.648-.077.028-.074-.22-.163-.55-.198l-4.198-.486zm12.777-5.366c-.073.027-.118.328-.102.67l.374 1.947c-.142.309-.202.59-.132.626.07.036.245-.187.389-.495l-.366-2.175c-.017-.342-.09-.6-.163-.573m-2.176-3.629c-.296 0-.615-.26-.71-.577-.095-.32-.232-.56-.307-.536-.073.023-.054.31.043.637l.052.173c.097.327.42.594.718.594.297 0 .63.264.737.588l.14.419c.108.323.256.567.328.54.073-.025.045-.31-.063-.634l-.204-.616c-.107-.323-.438-.588-.734-.588m14.051 1.597c.075-.02.065-.308-.023-.637l-.387-1.463c-.086-.33-.22-.583-.295-.561-.073.02-.064.307.024.637l.387 1.463c.088.329.22.582.294.561" fill="#BABABA"/><path d="M333.314 32.634c-.026-.2-.315-.324-.643-.276l-1.108.163c-.327.049-.327.131 0 .185l1.201.194c.328.054.575-.066.55-.266m-29.901-2.529c-.064-.293-.18-.26-.258.072v.001c-.078.332.05.8.281 1.04.232.24.348.208.258-.072a13.47 13.47 0 0 1-.281-1.04m36.191-7.684c0 .146-.225.108-.499-.083l-.177-.124c-.274-.192-.235-.285.088-.205h.002c.322.081.586.265.586.412m47.292 10.115c.142-.2.525-.31.852-.245l1.491.297c.325.065.321.133-.01.154l-1.988.12c-.332.021-.487-.126-.345-.326m.612-5.808c-.065-.226.15-.37.478-.32l1.342.204c.327.05.329.142.002.204l-1.111.21c-.326.062-.646-.072-.711-.298m-16.5 1.38l-.848-.35c-.308-.127-.29-.205.04-.173l.9.087m-32.317 3.242c.063-.186.063-.48 0-.654-.064-.172-.388-.313-.72-.313h-.344c-.332 0-.698.163-.814.363-.117.2.05.44.369.533l.813.24c.32.093.632.017.696-.17" fill="#D1D1D1"/><path d="M338.22 30.43c-.221-.238-.21-.435.023-.435.233 0 .518.12.634.267.116.147.067.504-.109.794l-.065.108c-.177.289-.267.341-.203.115.066-.228-.061-.608-.28-.848m48.912 2.202c.168-.093.192-.423.053-.733l-.623-1.388c-.138-.311-.202-.29-.141.046l.296 1.634c.06.336.247.535.415.441m.657-5.928c-.065-.133-.237.01-.384.316l-.641 1.352c-.147.307-.106.333.09.057l.697-.982c.195-.275.303-.61.238-.743m-84.654 4.553c-.234-.241-.268-.212-.076.066l.238.344c.193.278.499.603.68.723.18.12.17.023-.023-.217a15.93 15.93 0 0 0-.78-.875l-.039-.04zm20.721-.173c-.117-.173-.159-.064-.095.242.065.306.234.774.376 1.04.141.267.197.212.121-.12l-.054-.241c-.076-.334-.232-.748-.348-.921m13.303-.801c-.066-.204-.216-.169-.334.077-.117.247.031.57.329.72l.015.006c.296.15.444.113.325-.08a4.044 4.044 0 0 1-.335-.723m42.297-5.055c-.155.067-.385.38-.513.695l-.006.013c-.127.316-.068.352.132.079l.304-.413c.2-.273.239-.441.083-.374" fill="#D1D1D1"/><path d="M232.7 4.392a8.763 8.763 0 0 0-3.801.879c-1.23-2.517-3.722-4.24-6.58-4.24-2.109 0-3.993.929-5.35 2.415C215.418 1.351 213.022 0 210.323 0c-4.632 0-8.401 3.97-8.401 8.886 0 1.233.24 2.398.655 3.463-2.109 1.351-3.514 3.8-3.514 6.588 0 4.257 3.258 7.703 7.283 7.703.463 0 .926-.05 1.358-.135 1.086 3.108 3.913 5.338 7.235 5.338 3.178 0 5.91-2.044 7.091-4.95.91.406 1.9.642 2.955.642 2.715 0 5.11-1.52 6.436-3.818.416.068.847.102 1.278.102 5.08 0 9.184-4.342 9.184-9.714 0-5.371-4.105-9.713-9.184-9.713zm38.029 22.619l4.647-5.557-3.497-.777-4.041 4.848V13.649l-3.274 1.436v14.528c-.272-.963-.544-1.453-1.63-2.213-1.102-.777-4.024-1.183-4.631-1.841-.687-.76-.272-1.994 1.197-1.994 1.725 0 2.54 1.267 2.54 1.267l2.428-2.297s-1.023-1.537-4.025-1.926c-2.013-.27-6.357.152-6.357 4.764 0 3.328 4.12 3.7 5.718 4.358 1.501.608 1.421 2.399-.974 2.314-2.013-.067-2.955-1.587-2.955-1.587l-2.412 2.517s1.342 2.077 5.638 2.077c3.626 0 5.191-1.79 5.478-3.429v3.125h3.259V28.6l5.27 6.15h4.137l-6.516-7.738z" fill="#4A4A4A"/><path d="M244.855 29.14h9.519c.063-.456.16-.743.16-1.132.031-4.392-3.067-7.314-6.725-7.314-3.258 0-5.718 2.415-6.452 5.574V13.65l-3.338 1.402v6.555c-.863-.507-2.157-.912-3.275-.912-3.785 0-6.708 3.226-6.708 7.145 0 3.92 2.987 6.943 6.708 6.943 3.29 0 6.07-2.652 6.549-5.963.543 3.294 3.242 5.963 6.564 5.963 2.683 0 4.903-1.655 5.878-3.683l-3.578-.76c-.623.558-1.373.93-2.3.93-1.485 0-2.62-1.116-3.002-2.13zm3.066-4.95c1.39 0 2.572.811 3.083 2.163h-6.165c.495-1.352 1.693-2.163 3.082-2.163zm-11.66 6.673a3.086 3.086 0 0 1-1.517.388c-1.948 0-3.433-1.604-3.433-3.564s1.485-3.564 3.433-3.564c1.949 0 3.37 1.605 3.37 3.564 0 .828-.191 1.47-.654 2.078.127.878.958 1.385.958 1.385s-.894.574-2.156-.287z" fill="#4A4A4A"/><g fill="#FFF"><path d="M221.025 13.599l1.022.017c.511-1.825 1.294-2.737 2.252-2.737.75 0 1.166.473 1.166.828 0 .169-.096.27-.256.27-.463 0-.415-.845-1.006-.845-.655 0-1.006.828-1.437 2.5l.91-.016-.064.253h-.926l-1.182 4.139c-.59 2.044-1.182 3.344-2.667 3.344-.671 0-1.15-.32-1.15-.794 0-.22.16-.371.351-.371.224 0 .352.152.352.422 0 .068-.016.152-.016.237 0 .135.191.287.495.287.91 0 1.357-1.149 1.948-3.227l1.166-4.02h-1.006l.048-.287"/><path d="M224.97 17.247c-.4 0-.655-.168-.847-.473-.271-.422-.32-.76-.32-1.267 0-.692.113-1.064.448-1.419a.801.801 0 0 1 .655-.287c.431 0 1.134.625 1.134 1.639 0 .963-.415 1.807-1.07 1.807m-.096.27c1.054 0 1.885-.996 1.885-1.993a2.04 2.04 0 0 0-.575-1.47c-.256-.27-.719-.523-1.198-.523-.288 0-.703.068-1.15.44-.511.422-.735.996-.735 1.452 0 .642.08.98.463 1.47.368.439.895.625 1.31.625M227.59 15c0-.574-.176-.675-.272-.709-.064-.017-.24-.05-.256-.067-.032-.017-.112-.034-.112-.068v-.05c0-.034.048-.068.096-.085.08-.017.495-.203.863-.456.064-.05.191-.118.191.034l.048.59h.032c.256-.337.655-.76 1.022-.76.288 0 .432.203.432.423 0 .27-.208.456-.352.456a.64.64 0 0 1-.255-.067c-.064-.051-.176-.068-.288-.068-.144 0-.32.084-.463.388-.048.102-.048.27-.048.288v1.892c0 .287 0 .32.176.32h.399c.048 0 .064.068.064.119v.169c0 .05-.016.084-.048.084-.048 0-.447-.034-.91-.034-.527 0-.879.034-.927.034-.032 0-.032-.017-.032-.084v-.152c0-.068-.016-.118.064-.118h.336c.127 0 .207-.034.207-.153.016-.304.032-.59.032-1.064v-.861zm2.555.22c0 .49.207 1.048.43 1.369.288.388.64.456.927.456.431 0 .655-.102.943-.389.016-.017.047-.034.063 0l.08.085c.032.033.048.067 0 .118-.255.304-.798.642-1.373.642-.447 0-.927-.102-1.326-.625-.32-.44-.383-.828-.383-1.233 0-1.065.703-2.129 1.837-2.129.894 0 1.165.54 1.165.727-.016.202-.143.32-.319.32-.192 0-.335-.118-.463-.354-.192-.372-.367-.406-.575-.406-.48.017-1.006.49-1.006 1.42m3.258-.524c.16-.676.527-.913.894-.913.56 0 .655.592.655.794 0 .085-.064.119-.223.119h-1.326zm2.076.337c.144 0 .24-.033.24-.168 0-.355-.272-1.335-1.262-1.335-.431 0-.862.085-1.23.473-.447.473-.543 1.081-.543 1.436 0 .625.08.963.383 1.419.32.49.863.642 1.342.642.767 0 1.198-.625 1.358-.98.048-.101.032-.135 0-.135l-.112-.068c-.032-.017-.064.017-.08.051-.144.304-.511.608-1.038.608-.687 0-1.214-.642-1.214-1.537 0-.203.016-.422.032-.422h2.124v.016zm-21.306-.32c0 .473 0 1.807.016 2.094.016.152.048.254.224.254h.383c.08 0 .176.067.176.118v.152c0 .05-.048.084-.096.084-.064 0-.447-.033-.99-.033-.543 0-.671.033-.735.033-.048 0-.096-.033-.096-.084v-.152c0-.068.08-.118.176-.118h.143c.096 0 .16-.034.176-.203.016-.287-.016-1.808-.016-2.331v-.575c0-.642.016-1.47 0-1.706-.032-.507 0-.507-.351-.574-.096-.017-.192-.034-.224-.034s-.048-.034-.048-.05v-.068c0-.034.032-.05.08-.068.383-.135.687-.27 1.006-.523.08-.068.128-.068.176-.068.064 0 .064.05.064.169-.016.49-.048 2.382-.048 2.872v.81h-.016zm1.469-.017c.16-.676.527-.913.895-.913.559 0 .655.592.655.794 0 .085-.064.119-.224.119h-1.326zm2.077.337c.143 0 .24-.033.24-.168 0-.355-.272-1.335-1.262-1.335-.432 0-.863.085-1.23.473-.447.473-.543 1.081-.543 1.436 0 .625.08.963.383 1.419.32.49.862.642 1.342.642.766 0 1.198-.625 1.357-.98.048-.101.032-.135 0-.135l-.112-.068c-.032-.017-.063.017-.08.051-.143.304-.51.608-1.038.608-.686 0-1.213-.642-1.213-1.537 0-.203.016-.422.032-.422h2.124v.016zm.798 2.213c-.048-.033-.048-.084-.048-.135l-.143-.861c-.016-.05.016-.068.048-.068l.111-.034c.032-.016.064.017.08.051l.208.44c.176.337.287.557.75.557.304 0 .671-.186.671-.608 0-.406-.191-.642-.83-.828-.511-.152-1.006-.44-1.006-1.149 0-.625.559-1.098 1.197-1.098.416 0 .64.102.783.186.128.068.144.101.16.169l.128.625c0 .034-.016.067-.064.084l-.096.034c-.032.017-.048 0-.08-.05l-.287-.423a.651.651 0 0 0-.591-.355c-.32 0-.655.203-.655.592 0 .523.399.625.814.743.623.186 1.022.456 1.022 1.166-.016.726-.575 1.199-1.293 1.199a1.366 1.366 0 0 1-.879-.237"/><path d="M211.777 16.572c0 .236-.43.54-.67.523-.256-.016-.464-.185-.464-.523 0-.744.815-.896 1.134-1.115v1.115zm.64-.693V14.46c0-.236.015-.456-.16-.659-.112-.118-.272-.253-.671-.287-.384-.017-.671.118-1.039.321-.35.203-.59.524-.59.811 0 .203.063.287.207.304.352.017.447-.169.447-.49 0-.169-.08-.304.048-.405.112-.119.384-.237.56-.22.255.017.383.101.478.22.096.118.08.354.08.506v.609c0 .118-.543.32-.926.473-.67.287-.83.642-.83 1.047 0 .574.319.76.526.777.192.017.352.017.512-.034.383-.118.67-.287.846-.507h.016c.08.372.304.541.607.541.367 0 .511-.27.575-.405.048-.085.032-.136.016-.17l-.08-.084c-.032-.034-.048-.017-.08.034-.048.068-.096.135-.24.118-.16 0-.27-.084-.27-.591v-.49h-.033z"/><path d="M214.173 14.714c0 .473 0 1.807.016 2.094.016.152.048.254.224.254h.383c.08 0 .176.067.176.118v.152c0 .05-.048.084-.096.084-.064 0-.447-.033-.99-.033-.543 0-.671.033-.735.033-.048 0-.096-.033-.096-.084v-.152c0-.068.08-.118.176-.118h.143c.096 0 .16-.034.176-.203.016-.287-.016-1.808-.016-2.331v-.575c0-.642.016-1.47 0-1.706-.032-.507 0-.507-.351-.574-.096-.017-.192-.034-.224-.034s-.048-.034-.048-.05v-.068c0-.034.032-.05.08-.068.383-.135.687-.27 1.006-.523.08-.068.128-.068.176-.068.064 0 .064.05.064.169-.016.49-.048 2.382-.048 2.872v.81h-.016zm1.469-.017c.16-.676.527-.913.895-.913.559 0 .655.592.655.794 0 .085-.064.119-.224.119h-1.326zm2.077.337c.143 0 .24-.033.24-.168 0-.355-.272-1.335-1.262-1.335-.432 0-.863.085-1.23.473-.447.473-.543 1.081-.543 1.436 0 .625.08.963.383 1.419.32.49.862.642 1.342.642.766 0 1.198-.625 1.357-.98.048-.101.032-.135 0-.135l-.112-.068c-.032-.017-.063.017-.08.051-.143.304-.51.608-1.038.608-.686 0-1.213-.642-1.213-1.537 0-.203.016-.422.032-.422h2.124v.016zm.798 2.213c-.048-.033-.048-.084-.048-.135l-.143-.861c-.016-.05.016-.068.048-.068l.111-.034c.032-.016.064.017.08.051l.208.44c.176.337.287.557.75.557.304 0 .671-.186.671-.608 0-.406-.191-.642-.83-.828-.511-.152-1.006-.44-1.006-1.149 0-.625.559-1.098 1.197-1.098.416 0 .64.102.783.186.128.068.144.101.16.169l.128.625c0 .034-.016.067-.064.084l-.096.034c-.032.017-.048 0-.08-.05l-.287-.423a.651.651 0 0 0-.591-.355c-.32 0-.655.203-.655.592 0 .523.399.625.814.743.623.186 1.022.456 1.022 1.166-.016.726-.575 1.199-1.293 1.199a1.366 1.366 0 0 1-.879-.237m-10.94 0c-.048-.033-.048-.084-.048-.135l-.144-.861c-.016-.05.016-.068.048-.068l.112-.034c.032-.016.064.017.08.051l.207.44c.176.337.288.557.751.557.303 0 .67-.186.67-.608 0-.406-.19-.642-.83-.828-.51-.152-1.006-.44-1.006-1.149 0-.625.56-1.098 1.198-1.098.415 0 .639.102.783.186.127.068.143.101.16.169l.127.625c0 .034-.016.067-.064.084l-.096.034c-.032.017-.048 0-.08-.05l-.287-.423a.651.651 0 0 0-.591-.355c-.32 0-.655.203-.655.592 0 .523.4.625.815.743.623.186 1.022.456 1.022 1.166-.016.726-.575 1.199-1.294 1.199a1.366 1.366 0 0 1-.878-.237"/><path d="M211.777 16.572c0 .236-.43.54-.67.523-.256-.016-.464-.185-.464-.523 0-.744.815-.896 1.134-1.115v1.115zm.64-.693V14.46c0-.236.015-.456-.16-.659-.112-.118-.272-.253-.671-.287-.384-.017-.671.118-1.039.321-.35.203-.59.524-.59.811 0 .203.063.287.207.304.352.017.447-.169.447-.49 0-.169-.08-.304.048-.405.112-.119.384-.237.56-.22.255.017.383.101.478.22.096.118.08.354.08.506v.609c0 .118-.543.32-.926.473-.67.287-.83.642-.83 1.047 0 .574.319.76.526.777.192.017.352.017.512-.034.383-.118.67-.287.846-.507h.016c.08.372.304.541.607.541.367 0 .511-.27.575-.405.048-.085.032-.136.016-.17l-.08-.084c-.032-.034-.048-.017-.08.034-.048.068-.096.135-.24.118-.16 0-.27-.084-.27-.591v-.49h-.033z"/></g><path d="M236.214 13.48c-.144 0-.256.119-.256.27 0 .153.112.27.256.27.144 0 .255-.117.255-.27 0-.151-.111-.27-.255-.27zm0 .473c-.112 0-.208-.101-.208-.22 0-.117.096-.219.208-.219.112 0 .208.102.208.22 0 .118-.096.22-.208.22zM99.889 33.616l-7.004 9.661c3.055 2.12 6.769 3.346 10.718 3.487V34.841c-1.364-.094-2.633-.565-3.714-1.225zm3.667-15.363V6.33a20.424 20.424 0 0 0-10.718 3.487l7.004 9.661c1.081-.66 2.35-1.13 3.714-1.225zm11.987-8.436c-3.056-2.12-6.77-3.346-10.718-3.487v11.923a8.08 8.08 0 0 1 3.76 1.225l6.958-9.66zM96.551 29.705L85.222 33.38c1.316 3.63 3.62 6.834 6.628 9.143l7.005-9.66a8.571 8.571 0 0 1-2.304-3.158zm2.304-9.473l-7.005-9.66a20.476 20.476 0 0 0-6.628 9.142l11.33 3.676c.516-1.226 1.269-2.31 2.303-3.158zm-2.915 6.315c0-.66.094-1.32.235-1.932l-11.329-3.676a20.292 20.292 0 0 0-.799 5.655c0 1.98.282 3.865.8 5.655l11.328-3.675a9.929 9.929 0 0 1-.235-2.027zm13.633 6.315l7.004 9.661a20.476 20.476 0 0 0 6.628-9.143l-11.329-3.675a7.638 7.638 0 0 1-2.303 3.157zm-4.701 1.979v11.923a20.424 20.424 0 0 0 10.718-3.487l-7.005-9.66c-1.08.659-2.35 1.083-3.713 1.224zm18.709-13.949l-11.329 3.676c.141.612.235 1.32.235 1.98 0 .659-.094 1.319-.235 1.931l11.33 3.676c.516-1.79.798-3.676.798-5.655 0-1.932-.282-3.817-.799-5.608zm-11.705 2.498l11.33-3.676c-1.317-3.629-3.62-6.834-6.63-9.143l-7.003 9.614a8.367 8.367 0 0 1 2.303 3.205zm24.821 11.97c-2.398 0-3.432-1.603-3.432-3.488V17.64h2.538v14.091c0 .99.33 1.461 1.364 1.461h1.128v2.168h-1.598zm3.055-15.08v-2.687h2.68v2.686h-2.68zm.094 15.08V22.73h2.539v12.63h-2.539zm8.979 0c-2.35 0-3.432-1.697-3.432-3.488v-6.974h-1.457v-1.932h1.457v-3.818h2.539v3.818h2.444v1.932h-2.444v6.833c0 .943.423 1.461 1.41 1.461h1.034v2.168h-1.551zm18.709 0v-7.682c0-1.98-1.128-2.827-2.538-2.827-1.364 0-2.586.848-2.586 2.686v7.823h-2.538v-7.682c0-1.98-1.128-2.827-2.539-2.827-1.41 0-2.585.848-2.585 2.827v7.682h-2.539V22.73h2.492v1.272c.846-.942 2.068-1.413 3.337-1.413 1.552 0 2.774.612 3.573 1.837 1.034-1.225 2.304-1.837 3.949-1.837 1.27 0 2.444.424 3.196 1.13.988.943 1.317 2.121 1.317 3.535v8.059h-2.539v.047zm12.128 0v-1.273c-.846.943-2.068 1.414-3.337 1.414-1.27 0-2.35-.424-3.103-1.13-.987-.943-1.269-2.122-1.269-3.535V22.73h2.538v7.681c0 1.98 1.129 2.828 2.539 2.828 1.41 0 2.585-.848 2.585-2.828V22.73h2.539v12.63h-2.492zm8.838.141c-2.068 0-3.808-.33-5.265-1.838l1.645-1.65c1.035 1.038 2.398 1.32 3.62 1.32 1.551 0 2.774-.565 2.774-1.743 0-.849-.47-1.414-1.693-1.508l-2.021-.189c-2.35-.188-3.714-1.272-3.714-3.487 0-2.45 2.116-3.865 4.748-3.865 1.88 0 3.479.377 4.654 1.414l-1.598 1.602c-.8-.66-1.928-.942-3.103-.942-1.504 0-2.303.66-2.303 1.602 0 .754.376 1.32 1.739 1.461l1.974.189c2.35.188 3.76 1.32 3.76 3.534 0 2.733-2.208 4.1-5.217 4.1zM.075 34.91c.516-.276.477-1.145.477-1.263V22.08c0-.632-.397-.869-.397-.869h9.483s-.396.237-.396.869v11.804c0 .158.079.79.476 1.026H.075zm22.856 0c-.476-.315-.476-1.026-.476-1.184v-4.422s2.658 4.146 2.897 4.738c.277.671-.04.829-.04.829h10.912s-.12-.08-.278-.198a3.528 3.528 0 0 1-.952-.947c-.397-.513-4.365-6.948-4.365-6.948s3.016-4.185 3.492-4.777c.397-.553.873-.79.873-.79h-9.365s.516.355.08 1.027c-.476.67-3.175 4.421-3.175 4.421v-4.58c0-.63.397-.868.397-.868h-9.245s.396.237.396.869v11.567c0 .118.04 1.026-.476 1.263h9.325zm15.198-13.66s.396.238.396.87v11.567c0 .118.04 1.026-.476 1.263h15.912v-4.66s-.397.435-1.072.435H46.7V29.62h4.484c.278 0 1.032.08 1.19.356V25.79c-.198.276-.952.355-1.19.355H46.7V25.04h5.833c.873 0 1.429.631 1.429.631V21.25H38.129zm29.204 8.489S66.34 27.33 66.3 27.25c-.119-.276-.158-.71-.158-.71s0 .395-.16.71c-.039.08-1.03 2.488-1.03 2.488h2.38zm1.35 5.171s.436-.473.277-1.026c-.159-.592-.675-1.658-.675-1.658h-4.087s-.516 1.066-.674 1.658c-.16.553.277 1.026.277 1.026h-8.253s.476-.394.754-1.066c.278-.67 4.206-11.093 4.365-11.448.277-.711-.199-1.145-.199-1.145h13.134s-.476.434-.198 1.184c.238.75 4.444 11.054 4.643 11.449.357.75.872 1.066.872 1.066H68.682v-.04zm581.897-2.218c-2.373 0-4.298-2.006-4.298-4.482 0-2.475 1.925-4.481 4.298-4.481s4.297 2.006 4.297 4.481c0 2.476-1.924 4.482-4.297 4.482zm4.31.568c.06.688.6 1.563 1.534 1.563h.547a.391.391 0 0 0 .386-.393V22.166h-.002a.39.39 0 0 0-.384-.373h-1.695a.39.39 0 0 0-.383.373h-.003v.996c-1.038-1.305-2.675-1.846-4.317-1.846-3.731 0-6.757 3.086-6.757 6.894 0 3.808 3.026 6.895 6.757 6.895 1.642 0 3.431-.65 4.317-1.846v.001zm23.301-.568c-2.373 0-4.297-2.006-4.297-4.482 0-2.475 1.924-4.481 4.297-4.481 2.374 0 4.297 2.006 4.297 4.481 0 2.476-1.923 4.482-4.297 4.482zm4.31.568c.06.688.6 1.563 1.535 1.563h.546a.39.39 0 0 0 .386-.393V22.166h-.002a.39.39 0 0 0-.384-.373h-1.694a.39.39 0 0 0-.384.373h-.002v.996c-1.039-1.305-2.676-1.846-4.317-1.846-3.732 0-6.757 3.086-6.757 6.894 0 3.808 3.025 6.895 6.757 6.895 1.641 0 3.43-.65 4.317-1.846v.001zm26.557-.568c-2.373 0-4.297-2.006-4.297-4.482 0-2.475 1.924-4.481 4.297-4.481 2.373 0 4.297 2.006 4.297 4.481 0 2.476-1.924 4.482-4.297 4.482zm4.31.568c.06.688.6 1.563 1.534 1.563h.547a.391.391 0 0 0 .386-.393V22.166h-.002a.39.39 0 0 0-.384-.373h-1.695a.39.39 0 0 0-.383.373h-.002v.996c-1.039-1.305-2.676-1.846-4.318-1.846-3.731 0-6.756 3.086-6.756 6.894 0 3.808 3.025 6.895 6.756 6.895 1.642 0 3.431-.65 4.318-1.846v.001zm-13.216.422v-6.346c0-3.578-2.212-5.991-5.74-5.991-1.683 0-3.223.985-3.55 1.847-.106-.668-.453-1.369-1.53-1.369h-.548a.39.39 0 0 0-.386.394v12.266h.002a.389.389 0 0 0 .384.371h1.695a.366.366 0 0 0 .075-.008c.012-.002.022-.007.033-.01.012-.004.026-.007.038-.012.015-.006.029-.015.043-.023l.02-.011a.473.473 0 0 0 .048-.039l.008-.006a.391.391 0 0 0 .118-.263h.002v-7.245c0-1.921 1.527-3.479 3.41-3.479 1.883 0 3.41 1.558 3.41 3.48l.001 6.055v-.002l.001.016v1.175h.003a.39.39 0 0 0 .383.372h1.695a.364.364 0 0 0 .076-.008l.03-.009c.013-.004.027-.007.04-.013.014-.006.027-.014.04-.021l.024-.013a.416.416 0 0 0 .044-.036l.011-.01a.434.434 0 0 0 .047-.054.395.395 0 0 0 .071-.208h.003v-.8m-38.747-2.178c1.131.8 2.366 1.188 3.553 1.188 1.13 0 2.3-.598 2.3-1.639 0-1.39-2.548-1.606-4.148-2.161-1.6-.555-2.979-1.702-2.979-3.56 0-2.843 2.482-4.017 4.8-4.017 1.467 0 2.982.494 3.964 1.202.338.261.132.562.132.562l-.938 1.365c-.105.154-.289.287-.554.12-.264-.166-1.191-.836-2.605-.836-1.413 0-2.265.666-2.265 1.492 0 .99 1.107 1.301 2.403 1.639 2.259.621 4.723 1.368 4.723 4.194 0 2.504-2.296 4.052-4.833 4.052-1.923 0-3.56-.56-4.933-1.587-.287-.292-.087-.564-.087-.564l.933-1.358c.19-.255.43-.166.534-.092m-28.192-8.798c0 2.599-2.065 4.706-4.611 4.706-2.547 0-4.612-2.107-4.612-4.706S626.056 18 628.603 18c2.546 0 4.611 2.107 4.611 4.706zM622.16 37.978c-2.335-.232-4.16-2.24-4.16-4.684 0-2.599 2.065-4.705 4.612-4.705s4.612 2.106 4.612 4.705c0 2.444-1.826 4.452-4.161 4.684h-.902zm11.982 0c-2.335-.232-4.16-2.24-4.16-4.684 0-2.599 2.064-4.706 4.611-4.706 2.547 0 4.612 2.107 4.612 4.706 0 2.444-1.826 4.452-4.16 4.684h-.903zm136.996-16.941c1.886 0 3.29.593 4.548 1.74.185.149.185.371.037.52l-1.48 1.518c-.147.148-.332.148-.48 0a3.84 3.84 0 0 0-2.551-.963c-2.145 0-3.698 1.778-3.698 3.889 0 2.11 1.59 3.815 3.698 3.815.887 0 1.849-.334 2.514-.89.148-.11.37-.11.48.038l1.48 1.555c.148.148.11.37-.037.519-1.294 1.259-2.884 1.815-4.585 1.815-3.772 0-6.803-3-6.803-6.778 0-3.778 3.105-6.778 6.877-6.778zm12.572 0c3.77 0 6.766 3.037 6.766 6.815 0 3.778-2.995 6.778-6.767 6.778-3.771 0-6.766-3-6.766-6.778 0-3.778 3.032-6.815 6.766-6.815zm0 10.593c2.07 0 3.77-1.704 3.77-3.741 0-2.074-1.7-3.778-3.77-3.778-2.071 0-3.735 1.704-3.735 3.778 0 2.037 1.7 3.74 3.734 3.74zm9.058-10.037c0-.186.148-.37.333-.37h4.585c3.623 0 6.618 2.962 6.618 6.592a6.617 6.617 0 0 1-6.618 6.63H793.1c-.185 0-.333-.186-.333-.37V21.592zm4.77 10.074c2.144 0 3.66-1.667 3.66-3.815 0-2.148-1.553-3.815-3.66-3.815h-1.812v7.63h1.812zm9.096-10.074a.37.37 0 0 1 .37-.37h7.801a.37.37 0 0 1 .37.37v2.074a.37.37 0 0 1-.37.37h-5.213v2.333h4.289c.185 0 .37.186.37.37v2.075a.37.37 0 0 1-.37.37h-4.29v2.556h5.214a.37.37 0 0 1 .37.37v2.074a.37.37 0 0 1-.37.37h-7.802a.37.37 0 0 1-.37-.37V21.593zm21.038-.556c1.886 0 3.291.593 4.548 1.74.185.149.185.371.037.52l-1.479 1.518c-.148.148-.333.148-.48 0a3.84 3.84 0 0 0-2.552-.963c-2.144 0-3.697 1.778-3.697 3.889 0 2.11 1.59 3.815 3.697 3.815.888 0 1.849-.334 2.515-.89.147-.11.37-.11.48.038l1.48 1.555c.147.148.11.37-.038.519-1.294 1.259-2.884 1.815-4.585 1.815-3.771 0-6.803-3-6.803-6.778 0-3.778 3.106-6.778 6.877-6.778zm6.804.556a.37.37 0 0 1 .37-.37h2.255c.185 0 .37.184.37.37v10.074h4.474a.37.37 0 0 1 .37.37v2.074a.37.37 0 0 1-.37.37h-7.063a.37.37 0 0 1-.37-.37V21.593h-.036zm9.65 0c0-.186.185-.37.37-.37h2.255c.185 0 .37.184.37.37v12.481c0 .185-.185.37-.37.37h-2.255a.398.398 0 0 1-.37-.37V21.593zm7.506-.223c.037-.185.185-.296.333-.296h.296c.11 0 .258.074.332.185l4.363 8.148h.037l4.363-8.148a.441.441 0 0 1 .333-.185h.296c.148 0 .333.148.333.296l2.144 12.667c.037.26-.148.407-.37.407h-2.218a.398.398 0 0 1-.37-.296l-.85-5.815h-.037l-3.143 6.074c-.074.112-.222.223-.333.223h-.333c-.11 0-.258-.111-.332-.223l-3.18-6.11h-.037l-.814 5.814a.398.398 0 0 1-.37.296h-2.218c-.222 0-.407-.185-.37-.407l2.145-12.63zm13.533 12.593l5.879-12.704c.074-.11.185-.222.332-.222h.185c.148 0 .26.111.333.222l5.88 12.704c.11.26-.038.481-.334.481h-2.107c-.333 0-.48-.11-.666-.481l-.665-1.482h-5.103L868.234 34c-.111.222-.296.444-.666.444h-2.07c-.296 0-.444-.259-.333-.481zm7.727-4.037l-1.442-3.111h-.037l-1.405 3.11h2.884zM880.361 24h-2.699a.37.37 0 0 1-.37-.37v-2.074a.37.37 0 0 1 .37-.37h8.356a.37.37 0 0 1 .37.37v2.11a.37.37 0 0 1-.37.371h-2.699v10.074c0 .185-.185.37-.37.37h-2.255a.398.398 0 0 1-.37-.37V24h.037zm7.876-2.407a.37.37 0 0 1 .37-.37h7.801a.37.37 0 0 1 .37.37v2.074a.37.37 0 0 1-.37.37h-5.213v2.333h4.289c.185 0 .37.186.37.37v2.075a.37.37 0 0 1-.37.37h-4.289v2.556h5.213a.37.37 0 0 1 .37.37v2.074a.37.37 0 0 1-.37.37h-7.801a.37.37 0 0 1-.37-.37V21.593zM744.59 17l-6.73 6.704 3.994 4 2.736-2.741 7.69 7.74 3.957-4zm-7.95 7.926l-3.956-3.963-10.131 10.148L721 32.667l3.993 4 1.553-1.593 5.14-5.111.998-1 3.956 3.963 3.735 3.74 3.993-4-3.734-3.74z" fill="#4A4A4A"/><g fill="#4A4A4A"><path d="M920.122 54.828a1.364 1.364 0 0 1-1.36-1.36l.02-8.253h-8.987c-5.537 0-7.795-2.251-7.795-7.772v-20.67C902 11.252 904.258 9 909.795 9h68.699c6.14 0 7.341 2.85 7.341 7.773v20.668c0 5.52-2.258 7.773-7.794 7.773h-38.296l-19.016 9.472c-.19.094-.4.142-.607.142zm-10.327-43.115c-4.03 0-5.075 1.04-5.075 5.06v20.668c0 4.02 1.045 5.06 5.075 5.06h10.351a1.361 1.361 0 0 1 1.36 1.36l-.019 7.414 17.33-8.63a1.34 1.34 0 0 1 .608-.143h38.616c4.03 0 5.074-1.04 5.074-5.059v-20.67c0-2.182-.26-3.448-.846-4.105-.363-.41-1.153-.955-3.774-.955h-68.7z"/><path d="M915.793 32.157h-5.078V19.612a9.156 9.156 0 0 0-1.488-.127 8.68 8.68 0 0 0-1.448.127v15.21h8.014c.04-.24.068-.47.08-.687a10.457 10.457 0 0 0 0-1.29 6.119 6.119 0 0 0-.08-.688zm-.102-7.15c0 .183.01.377.03.581.02.205.05.399.092.582h1.366v8.653c.488.086.959.13 1.406.13.463 0 .938-.043 1.427-.13V23.885h-4.2c-.08.367-.12.74-.12 1.122zm1.815-2.877a13.9 13.9 0 0 0 1.477 0c.266-.015.513-.043.744-.085.042-.24.069-.48.082-.72a11.58 11.58 0 0 0 0-1.407 6.551 6.551 0 0 0-.082-.708 7.574 7.574 0 0 0-.754-.095 9.72 9.72 0 0 0-.755-.032 9.11 9.11 0 0 0-1.468.127 8.745 8.745 0 0 0-.123 1.417c0 .466.042.938.123 1.417.232.043.484.071.756.086zm12.795 1.65a13.12 13.12 0 0 0-.704-.022c-.258 0-.516.011-.774.032a7.391 7.391 0 0 0-.733.095l-2.264 8.145-2.304-8.145a4.063 4.063 0 0 0-.755-.105 15.409 15.409 0 0 0-.816-.02c-.204 0-.446.007-.724.02a5.68 5.68 0 0 0-.907.127l3.934 10.896c.232.056.476.09.734.105a12.386 12.386 0 0 0 1.408 0c.286-.014.558-.042.816-.086l3.997-10.915a6.07 6.07 0 0 0-.908-.127zm10.083 3.014a4.683 4.683 0 0 0-.907-1.66 4.33 4.33 0 0 0-1.458-1.1c-.571-.269-1.223-.403-1.957-.403-.843 0-1.58.152-2.213.455a4.607 4.607 0 0 0-1.59 1.238 5.36 5.36 0 0 0-.97 1.84 7.66 7.66 0 0 0-.326 2.264c0 .819.106 1.573.317 2.264.21.691.537 1.287.979 1.788.44.5 1.012.893 1.713 1.174.7.282 1.538.423 2.518.423 1.332 0 2.528-.212 3.588-.636a5.42 5.42 0 0 0-.571-2.285c-.435.169-.895.3-1.377.39a7.509 7.509 0 0 1-1.418.138c-.843 0-1.522-.19-2.039-.572-.516-.38-.802-.994-.856-1.84h6.77a10.062 10.062 0 0 0 .103-1.417 6.73 6.73 0 0 0-.306-2.06zm-6.545 1.386c.069-.72.279-1.276.632-1.672.353-.395.87-.592 1.55-.592.598 0 1.063.208 1.397.624.332.416.513.962.54 1.64h-4.12zm17.598 3.766c-.476.169-.904.29-1.285.36-.38.07-.821.103-1.325.103-2.815 0-4.222-1.72-4.222-5.161 0-1.735.35-3.043 1.05-3.925.701-.88 1.703-1.322 3.007-1.322.502 0 .938.036 1.305.106s.79.19 1.265.359c.162-.41.313-.815.448-1.216.135-.402.217-.815.244-1.238a7.747 7.747 0 0 0-1.786-.53 11.922 11.922 0 0 0-1.804-.127c-1.102 0-2.082.198-2.945.593a6.123 6.123 0 0 0-2.181 1.65c-.592.705-1.045 1.54-1.358 2.506-.311.966-.468 2.014-.468 3.142 0 1.128.149 2.172.448 3.131.3.96.745 1.788 1.335 2.486a6.042 6.042 0 0 0 2.192 1.63c.871.386 1.881.581 3.039.581.65 0 1.26-.042 1.823-.127.564-.085 1.2-.26 1.908-.53a8.762 8.762 0 0 0-.69-2.472zm7.44-8.315a3.337 3.337 0 0 0-2.54 1.09c-.156.176-.28.328-.376.455v-5.818a6.345 6.345 0 0 0-.733-.085 12.75 12.75 0 0 0-.714-.021c-.23 0-.47.007-.713.021a5.848 5.848 0 0 0-.714.085v15.486c.245.042.486.07.725.084a11.645 11.645 0 0 0 1.416 0c.244-.014.49-.042.734-.084V29.09c0-.593.065-1.073.193-1.44.13-.366.292-.652.49-.856.196-.205.417-.342.663-.414.244-.07.481-.105.712-.105.56 0 .953.205 1.184.614.231.41.346.994.346 1.756v6.199c.245.042.49.07.734.084a12.107 12.107 0 0 0 1.427 0 6.63 6.63 0 0 0 .733-.084V27.84c0-1.452-.302-2.517-.907-3.194-.603-.677-1.489-1.016-2.66-1.016zm8.545 0c-.517 0-1.075.05-1.674.149-.597.099-1.195.253-1.792.465 0 .451.046.84.142 1.163.096.325.238.671.428 1.037.83-.297 1.611-.444 2.345-.444.34 0 .648.021.928.064.28.042.513.124.703.243.19.12.34.285.449.497.107.212.162.487.162.826v.253c-.476-.043-.91-.064-1.306-.064a7.53 7.53 0 0 0-1.631.18 4.655 4.655 0 0 0-1.478.593 3.279 3.279 0 0 0-1.08 1.1c-.279.459-.416 1.026-.416 1.702 0 .677.11 1.248.335 1.714.224.467.543.845.96 1.142.414.298.91.508 1.488.635.577.129 1.213.19 1.906.19.857 0 1.624-.07 2.305-.212.68-.14 1.258-.29 1.735-.444v-6.346c0-1.552-.398-2.68-1.193-3.386-.797-.704-1.902-1.057-3.316-1.057zm1.693 8.971l-.531.096a3.476 3.476 0 0 1-.612.052 7.53 7.53 0 0 1-.621-.031 2.14 2.14 0 0 1-.674-.17 1.327 1.327 0 0 1-.54-.434c-.15-.197-.224-.478-.224-.845 0-.55.193-.949.581-1.195.387-.247.914-.37 1.582-.37.149 0 .318.01.508.031.19.021.367.046.53.074v2.792zm10.173.643a4.262 4.262 0 0 0-.203-.836l-.52.098a3.415 3.415 0 0 1-.601.052 2.4 2.4 0 0 1-.675-.085.967.967 0 0 1-.478-.317 1.61 1.61 0 0 1-.296-.636c-.07-.267-.102-.62-.102-1.057V26.17h2.468c.042-.225.07-.43.082-.614a7.283 7.283 0 0 0 0-1.1 5.801 5.801 0 0 0-.082-.572h-2.468V20.69h-.469l-3.813 5.056.101.423h1.326v4.95c0 1.355.327 2.332.979 2.93.652.601 1.596.901 2.834.901.666 0 1.31-.077 1.937-.233.014-.1.023-.201.03-.307a5.34 5.34 0 0 0-.05-1.164z"/></g><g fill="#4A4A4A"><path d="M1097.087 24.782c.205 0 .282.05.333.274l.256 1.316 3.076.1V21.95c-.461-.124-1.64-.224-2.23-.224-1.64 0-2.768.969-3.614 2.236h-.154l-.308-1.987h-4.511l-.256 1.824c.042.08.085.159.125.24l1.233.42c.256.074.333.248.333.52v7.279c0 .372-.051.447-.41.497l-1.154.149v2.012h8.383v-1.988l-2.538-.198c-.384-.025-.41-.1-.41-.497v-6.582c.385-.323 1.18-.87 1.846-.87zm-26.507-.621l.08-.015c.243-.503.524-.984.843-1.438v-.732h-5.384l-.333 2.061 1.461.15-1.922 6.979h-.154l-2.205-8.868h-3.87l-2.282 8.868h-.18l-2.05-6.98 1.435-.149v-2.061h-6.485l-.065.317c-.923-.26-2.56-.566-4.235-.566-2.948 0-5.665 1.267-5.665 4.347 0 3.254 2.82 3.701 4.973 4.073 1.307.224 2.332.522 2.332 1.516 0 .919-.769 1.291-2.127 1.291-.974 0-1.666-.149-1.974-.248-.23-.05-.282-.15-.307-.373l-.257-1.415-2.743-.2v3.603c.462.298 2.743.894 5.076.894 3.256 0 5.793-1.242 5.793-4.273 0-2.906-2.281-3.601-4.306-4.048-1.564-.348-2.974-.572-2.974-1.59 0-.795.718-1.267 2-1.267.692 0 1.307.1 1.64.199.18.05.231.149.256.348l.257 1.291 2.743.174v-1.89l.25.052c.307.075.435.124.538.423l3.23 10.283h4.614l2.025-8.321h.154l1.999 8.32h4.05l3.153-10.258c.103-.323.257-.447.616-.497z"/><path d="M1113.747 32.78c-.385-.049-.41-.099-.41-.471V16.163h-5.153l-.282 2.012 1.41.472c.23.075.334.249.334.497v3.775c-.975-.695-2.128-1.192-3.615-1.192-2.846 0-5.434 1.888-5.434 6.88 0 4.745 1.948 6.608 4.973 6.608 1.87 0 3.127-.696 4.203-1.714l.18.025.256 1.39h4.768v-1.962l-1.23-.174zm-4.255-1.564c-.692.571-1.64 1.068-2.513 1.068-1.615 0-2.332-1.342-2.332-3.75 0-2.212.743-3.926 2.64-3.926.743 0 1.564.323 2.205.746v5.862zm-74.497-4.322c-1.564-.348-2.974-.572-2.974-1.59 0-.795.718-1.267 2-1.267.692 0 1.307.1 1.64.199.18.05.231.149.257.348l.256 1.291 2.743.174v-3.602c-.718-.273-2.692-.72-4.717-.72-2.948 0-5.665 1.267-5.665 4.347 0 3.254 2.82 3.701 4.973 4.073 1.307.224 2.333.522 2.333 1.516 0 .919-.77 1.291-2.128 1.291-.974 0-1.666-.149-1.974-.248-.23-.05-.282-.15-.307-.373l-.257-1.415-2.743-.2v2.206l-1.043-.168c-.384-.05-.41-.1-.41-.497v-6.036c0-3.477-1.564-4.496-5.46-4.496-2.358 0-5.512.472-5.512 3.825l3.615.299c0-1.49.64-1.665 1.871-1.665 1.59 0 1.718.795 1.718 1.963v1.366l-2.948.198c-3.204.199-4.794 1.342-4.794 3.826 0 1.54.513 3.676 3.743 3.676 2.05 0 3.332-.745 4.306-1.665l.128.025.257 1.342h4.717v-.502c.719.314 2.78.8 4.888.8 3.256 0 5.794-1.242 5.794-4.273 0-2.906-2.282-3.601-4.307-4.048zm-11.784 4.744c-.59.422-1.461.894-2.333.894-.846 0-1.461-.372-1.461-1.366 0-.994.538-1.366 2.05-1.465l1.744-.125v2.062zm-14.358-3.353c4.332 0 7.023-1.74 7.023-6.061 0-2.856-1.435-5.29-6.178-5.29h-8.69v1.986l1.616.174c.358.025.41.125.41.497v12.693c0 .372-.052.447-.41.496l-1.615.174v1.963h10.048v-1.963l-3.665-.198c-.385-.05-.41-.1-.41-.497v-3.974h1.87zm-1.872-8.644h1.513c1.82 0 3.332.422 3.332 2.806 0 2.807-1.871 3.18-3.563 3.18h-1.282V19.64zm-8.496 12.643V20.609h-6.152l-.282 2.037 2.23.447c.257.075.333.224.333.522v8.669c0 .372-.05.471-.41.496l-2.204.174v1.963h8.997v-1.963l-2.102-.174c-.384-.025-.41-.099-.41-.496zm81.772-14.068c-5.845 0-10.583 4.591-10.583 10.255 0 5.663 4.738 10.254 10.583 10.254s10.584-4.59 10.584-10.254-4.739-10.255-10.584-10.255zm0 20.046c-5.581 0-10.105-4.383-10.105-9.791s4.524-9.792 10.105-9.792c5.582 0 10.106 4.384 10.106 9.792 0 5.408-4.524 9.791-10.106 9.791z"/><path d="M1080.257 20.57c-4.502 0-8.151 3.537-8.151 7.9 0 4.362 3.65 7.898 8.151 7.898 4.502 0 8.152-3.536 8.152-7.899 0-4.362-3.65-7.899-8.152-7.899zm.001 14.208c-3.595 0-6.51-2.825-6.51-6.309s2.915-6.308 6.51-6.308c3.596 0 6.511 2.824 6.511 6.308s-2.915 6.309-6.51 6.309z"/><path d="M1078.946 27.127l.657.636-.657.636v4.26h2.624v-2.848l-.655-.636.655-.635v-4.26h-2.624z"/></g></g></svg>