<svg width="69" height="69" viewBox="0 0 69 69" xmlns="http://www.w3.org/2000/svg"><title>Oval 1 + Imported Layers 2 + Imported Layers 3</title><g transform="translate(0 .5)" fill="none"><ellipse fill="#007DCC" cx="34.064" cy="34.064" rx="34.064" ry="34.064"/><path d="M27.717 47.713c-4.068 0-4.38-1.273-4.38-2.72V35.4c0-1.436-3.338-2.038-3.338-2.038s3.338-.486 3.338-2.11v-9.47c0-1.446.31-2.78 4.38-2.78m13.566 28.711c4.068 0 4.38-1.273 4.38-2.72V35.4c0-1.436 3.338-2.038 3.338-2.038s-3.338-.486-3.338-2.11v-9.47c0-1.446-.31-2.78-4.38-2.78" stroke="#fff" stroke-width="3" stroke-linecap="round" stroke-linejoin="round"/></g></svg>