<svg width="69" height="69" viewBox="0 0 69 69" xmlns="http://www.w3.org/2000/svg"><title>Oval 1 + Imported Layers</title><g transform="translate(0 .5)" fill="none"><ellipse fill="#FFDE00" cx="34.064" cy="34.064" rx="34.064" ry="34.064"/><g fill="#fff"><path d="M48.545 23.138C49.125 22.76 50 22.19 50 21v-2a1 1 0 0 0-1-1h-2c-1.193 0-1.762.876-2.138 1.455-.2.31-.362.545-.462.545-.1 0-.26-.235-.462-.544C43.585 18.91 42.995 18 41.8 18s-1.762.876-2.14 1.455c-.2.31-.36.545-.46.545-.1 0-.26-.236-.462-.545-.376-.58-.946-1.455-2.138-1.455s-1.76.876-2.138 1.455c-.2.31-.362.545-.462.545-.1 0-.26-.236-.46-.545-.38-.58-.95-1.455-2.14-1.455-1.193 0-1.762.876-2.14 1.456-.2.31-.36.544-.46.544-.1 0-.26-.236-.462-.545-.377-.58-.946-1.455-2.14-1.455-1.19 0-1.76.875-2.136 1.454-.2.31-.363.546-.462.546-.1 0-.26-.236-.462-.545C22.76 18.875 22.192 18 21 18h-2a1 1 0 0 0-1 1v2c0 1.194.91 1.785 1.456 2.138.308.2.544.362.544.462 0 .1-.236.26-.544.46-.545.354-1.456.946-1.456 2.14 0 1.194.876 1.763 1.456 2.14.308.2.544.36.544.46 0 .1-.236.262-.545.462-.58.378-1.455.946-1.455 2.138 0 1.193.875 1.762 1.455 2.138.31.2.545.363.545.462 0 .1-.236.26-.545.46-.58.38-1.455.948-1.455 2.14 0 1.193.875 1.76 1.455 2.138.31.2.545.363.545.462 0 .1-.236.262-.545.462-.58.377-1.455.945-1.455 2.138 0 1.192.875 1.762 1.455 2.138.31.202.545.363.545.46 0 .102-.236.263-.545.464C18.875 45.24 18 45.81 18 47v2a1 1 0 0 0 1 1h2c1.194 0 1.785-.91 2.14-1.455.2-.31.36-.545.46-.545.1 0 .26.236.46.544.354.544.945 1.456 2.14 1.456 1.194 0 1.762-.876 2.14-1.456.2-.308.36-.544.46-.544.1 0 .26.236.462.546.377.578.946 1.454 2.138 1.454 1.193 0 1.762-.876 2.14-1.455.2-.31.36-.545.46-.545.1 0 .26.236.462.546.377.578.947 1.454 2.14 1.454 1.19 0 1.76-.876 2.137-1.455.2-.31.36-.545.46-.545.1 0 .26.236.462.546.377.578.946 1.454 2.138 1.454s1.76-.876 2.138-1.454c.2-.31.363-.546.462-.546.1 0 .262.236.463.546C45.24 49.126 45.81 50 47 50h2a1 1 0 0 0 1-1v-2c0-1.194-.91-1.785-1.456-2.138-.308-.2-.544-.362-.544-.463 0-.1.236-.26.544-.46.545-.354 1.456-.946 1.456-2.14 0-1.194-.876-1.762-1.456-2.14-.308-.2-.544-.36-.544-.46 0-.1.236-.262.545-.463.58-.376 1.455-.945 1.455-2.136 0-1.193-.875-1.762-1.455-2.14-.31-.2-.545-.36-.545-.46 0-.1.236-.26.545-.462.58-.377 1.455-.946 1.455-2.138 0-1.193-.875-1.76-1.455-2.138-.31-.2-.545-.363-.545-.462 0-.1.236-.26.545-.462.58-.377 1.455-.946 1.455-2.138s-.875-1.762-1.455-2.138c-.31-.2-.545-.363-.545-.462 0-.1.236-.26.545-.462zM48 21c0 .1-.236.26-.545.46-.58.38-1.455.947-1.455 2.14 0 1.192.875 1.76 1.455 2.138.31.202.545.363.545.462 0 .1-.236.26-.545.46-.58.378-1.455.946-1.455 2.14 0 1.192.875 1.763 1.455 2.138.31.202.545.363.545.462 0 .1-.237.26-.546.462C46.874 32.24 46 32.81 46 34c0 1.192.875 1.762 1.455 2.138.31.2.545.363.545.463 0 .1-.236.26-.545.46-.58.378-1.455.948-1.455 2.14 0 1.193.875 1.762 1.455 2.138.31.2.545.362.545.462 0 .1-.236.262-.544.46-.545.354-1.456.946-1.456 2.14 0 1.195.912 1.787 1.456 2.14.308.2.544.36.544.46v1h-1c-.1 0-.26-.236-.46-.545-.38-.581-.95-1.456-2.14-1.456-1.192 0-1.76.875-2.138 1.455-.2.31-.363.545-.462.545-.1 0-.26-.236-.46-.545-.378-.58-.947-1.455-2.14-1.455s-1.76.875-2.138 1.455c-.2.31-.362.545-.46.545-.1 0-.263-.236-.464-.546C35.76 46.874 35.19 46 34 46c-1.193 0-1.762.875-2.138 1.455-.2.31-.362.545-.462.545-.1 0-.26-.236-.46-.545-.378-.58-.947-1.455-2.14-1.455s-1.76.875-2.138 1.455c-.2.31-.362.545-.462.545-.1 0-.26-.236-.46-.545C25.385 46.91 24.793 46 23.6 46c-1.194 0-1.785.91-2.14 1.455-.2.31-.36.545-.46.545h-1v-1c0-.1.236-.26.545-.46.58-.38 1.455-.948 1.455-2.14 0-1.192-.875-1.76-1.455-2.138-.31-.2-.545-.363-.545-.462 0-.1.236-.26.545-.46.58-.377 1.455-.947 1.455-2.14 0-1.192-.875-1.762-1.455-2.138-.31-.202-.545-.363-.545-.46 0-.1.237-.263.546-.464C21.126 35.76 22 35.19 22 34c0-1.192-.875-1.762-1.455-2.14-.31-.2-.545-.36-.545-.46 0-.098.236-.26.545-.462.58-.375 1.455-.946 1.455-2.138 0-1.193-.875-1.76-1.455-2.138-.31-.2-.545-.362-.545-.462 0-.1.236-.26.544-.46.545-.354 1.456-.946 1.456-2.14 0-1.195-.912-1.785-1.456-2.14-.308-.2-.544-.36-.544-.46v-1h1c.1 0 .26.236.46.545.378.58.948 1.455 2.14 1.455 1.193 0 1.762-.876 2.14-1.455.2-.31.36-.545.46-.545.1 0 .26.236.46.545.378.58.948 1.455 2.14 1.455 1.193 0 1.76-.875 2.138-1.455.2-.31.362-.545.462-.545.1 0 .262.236.463.545C32.24 21.125 32.81 22 34 22c1.193 0 1.763-.876 2.14-1.455.2-.31.36-.545.46-.545.1 0 .26.236.46.545.378.58.947 1.455 2.14 1.455 1.192 0 1.76-.875 2.138-1.455.2-.31.362-.545.463-.545.1 0 .26.235.46.543.354.546.945 1.457 2.14 1.457 1.194 0 1.786-.91 2.14-1.455.2-.31.36-.545.46-.545h1v1z"/><path d="M42.227 26H26.772a.773.773 0 0 0-.773.773v15.455c0 .427.345.773.772.773h15.455A.772.772 0 0 0 43 42.23V26.773a.773.773 0 0 0-.773-.773zm-14.682 1.545h13.91v13.91h-13.91v-13.91z" stroke="#fff"/></g></g></svg>