<svg width="48" height="13" viewBox="0 0 48 13" xmlns="http://www.w3.org/2000/svg"><g fill="#4FC47F" fill-rule="evenodd"><path d="M15 7.5c0-.652-.42-1.2-1-1.408V4.908a1.496 1.496 0 1 0-1.5-2.518v8.11h-10V2.39a1.487 1.487 0 0 0-1-.39A1.496 1.496 0 0 0 1 4.908v1.184C.42 6.3 0 6.848 0 7.5c0 .652.42 1.2 1 1.408v1.184A1.496 1.496 0 1 0 2.908 12h1.184c.207.58.756 1 1.408 1 .652 0 1.2-.42 1.408-1h1.184c.207.58.756 1 1.408 1 .652 0 1.2-.42 1.408-1h1.184A1.496 1.496 0 1 0 14 10.092V8.908c.58-.207 1-.756 1-1.408"/><path d="M11 3L7.5 0 4 3h2.5v4h2V3H11m20 4.5c0-.652-.42-1.2-1-1.408V4.908a1.496 1.496 0 1 0-1.5-2.518v8.11h-10V2.39A1.492 1.492 0 0 0 16 3.5c0 .652.42 1.2 1 1.408v1.184c-.58.207-1 .756-1 1.408 0 .652.42 1.2 1 1.408v1.184A1.496 1.496 0 1 0 18.908 12h1.184c.207.58.756 1 1.408 1 .652 0 1.2-.42 1.408-1h1.184c.207.58.756 1 1.408 1 .652 0 1.2-.42 1.408-1h1.184A1.496 1.496 0 1 0 30 10.092V8.908c.58-.207 1-.756 1-1.408"/><path d="M27 4l-3.5 3L20 4h2.5V0h2v4H27m20.697 2.617C45.74 3.683 42.932 2 39.987 2c-3.087 0-6.05 1.758-7.732 4.588l-.255.43.27.42C34.06 10.207 37.088 12 39.988 12c2.887 0 5.766-1.673 7.7-4.476l.313-.45-.303-.457zm-7.71 3.716c-2.164 0-4.448-1.3-5.943-3.35 1.402-2.057 3.64-3.316 5.943-3.316 2.153 0 4.33 1.257 5.918 3.39-1.592 2.06-3.77 3.276-5.918 3.276z"/><path d="M40 5a2 2 0 1 0 0 4 2 2 0 0 0 0-4"/></g></svg>