<svg width="349" height="88" viewBox="0 0 349 88" xmlns="http://www.w3.org/2000/svg"><g fill="none" fill-rule="evenodd"><rect fill="#333" width="253" height="10" rx="5"/><circle fill="#FFF" cx="5" cy="5" r="2"/><circle fill="#FFF" cx="248" cy="5" r="2"/><rect fill="#333" x="4" y="21" width="80" height="60" rx="2"/><path fill="#333" d="M40 11h8v20h-8zm14 0h8v20h-8zM0 34h88v4H0zm0 37h88v10H0z"/><circle fill="#FFF" cx="13" cy="30" r="2"/><circle fill="#FFF" cx="20" cy="30" r="2"/><circle fill="#FFF" cx="27" cy="30" r="2"/><path d="M77 81V39H11v42" stroke="#5C5C5C"/><path d="M39.983 66.093H37.8v2.182h7.087v-2.182h-2.285V61.6h1.95c2.492 0 4.136-.283 5.342-1.49.745-.745 1.464-2.106 1.464-3.878 0-2.208-1-5.392-5.83-5.392H37.8v2.183h2.183v13.07zm2.62-6.6v-6.47h3.003c1.926 0 3.082 1.13 3.082 3.184 0 1.797-.694 3.287-3.904 3.287h-2.182z" fill="#FFF"/><rect fill="#333" x="89" y="52" width="46" height="29" rx="2"/><path d="M100.455 60.665H96.09v1.065h3.06v5.775c0 1.605-.81 2.58-2.25 2.58-.6 0-1.35-.15-2.235-.705l-.57.855c.81.615 1.815.945 2.82.945 2.73 0 3.54-1.89 3.54-3.615v-6.9zm9.6 7.47c0-1.965-1.41-2.64-3.03-3.105-1.965-.57-2.595-1.02-2.595-1.905 0-1.035.93-1.53 2.07-1.53.87 0 1.74.285 2.475.93l.78-.84c-.87-.75-1.89-1.185-3.3-1.185-1.98 0-3.345 1.11-3.345 2.67 0 1.635 1.275 2.385 3.33 2.985 1.77.51 2.25 1.005 2.25 2.01 0 1.305-1.14 1.92-2.4 1.92s-2.145-.435-2.865-1.11l-.78.885c.87.84 2.115 1.305 3.63 1.305 2.4 0 3.78-1.245 3.78-3.03zm9.24-2.295c0-3.18-1.29-5.34-3.795-5.34s-3.795 2.235-3.795 5.355c0 3.195 1.29 5.31 3.795 5.31s3.795-2.19 3.795-5.325zm-1.35 0c0 2.76-.705 4.23-2.445 4.23-1.695 0-2.445-1.455-2.445-4.215 0-2.745.705-4.26 2.445-4.26 1.74 0 2.445 1.5 2.445 4.245zm7.98 5.16h1.83V60.665h-1.215v5.175c0 1.86.165 3.525.18 3.945l-3.705-9.12h-1.77V71h1.215v-5.175c0-1.59-.15-3.45-.18-3.9L125.925 71z" fill="#FFF"/><path d="M115 51a3 3 0 0 0-6 0m.318-.547h-7.632s-4.757.36-4.757-2.768c0-3.127 2.53-4.386 4.36-4.386s8.027 7.152 8.027 7.152z" stroke="#333" stroke-width="1.5"/><path d="M114.93 50.453h7.63s4.758.36 4.758-2.768c0-3.127-2.533-4.386-4.364-4.386-1.83 0-8.025 7.152-8.025 7.152z" stroke="#333" stroke-width="1.5"/><rect fill="#333" x="89" y="12" width="45" height="29" rx="2"/><path d="M91 15l20.5 13L132 15" stroke="#FFF" stroke-linecap="round"/><path d="M171 58.41V56h-2V11h-4v45h-2v2.475l-18.544 5.178-7.75 11.672 6.175 11.9-3.113-11.537 5.995-8.85 17.668-4.036a4 4 0 0 0 7.167-.047l17.873 4.083 5.996 8.85-3.115 11.537 6.174-11.9-7.75-11.672L171 58.41z" fill="#333"/><path d="M165 11h4v1h-4zm0 4h4v1h-4zm0 4h4v1h-4zm0 4h4v1h-4zm0 4h4v1h-4zm0 4h4v1h-4zm0 4h4v1h-4zm0 4h4v1h-4zm0 4h4v1h-4zm0 4h4v1h-4zm0 4h4v1h-4zm0 4h4v1h-4z" fill="#FFF" opacity=".497"/></g></svg>