<svg xmlns="http://www.w3.org/2000/svg" width="15" height="13" viewBox="0 0 15 13"><path opacity=".8" d="M13.627 12.9c.104 0 .21.005.306-.02a1.18 1.18 0 0 0 .72-.55 1.2 1.2 0 0 0 .115-.894c0-.003-.002-.003-.002-.004L8.504.702c-.052-.09-.1-.185-.174-.258A1.17 1.17 0 0 0 7.5.1c-.325 0-.62.132-.832.344-.067.068-.11.153-.158.234L.233 11.438a1.17 1.17 0 0 0 .118.892c.165.283.425.47.715.55.1.026.203.02.306.022L13.63 12.9z"/><circle fill="#FFF" cx="7.5" cy="9.5" r=".65"/><path fill="#FFF" d="M6.8 3.7h1.4L7.7 8h-.4z"/></svg>