<svg width="419" height="79" viewBox="0 0 419 79" xmlns="http://www.w3.org/2000/svg"><title>library-logos</title><defs><linearGradient x1="12.959%" y1="12.208%" x2="79.639%" y2="78.075%" id="a"><stop stop-color="#387EB8" offset="0%"/><stop stop-color="#366994" offset="100%"/></linearGradient><linearGradient x1="19.128%" y1="20.71%" x2="90.742%" y2="88.258%" id="b"><stop stop-color="#FFE052" offset="0%"/><stop stop-color="#FFC331" offset="100%"/></linearGradient><radialGradient cx="30.02%" cy="17.584%" fx="30.02%" fy="17.584%" r="141.819%" id="c"><stop stop-color="#FFF" offset="0%"/><stop stop-color="#4C6B97" offset="50%"/><stop stop-color="#231F20" offset="100%"/></radialGradient></defs><g fill="none" fill-rule="evenodd"><g fill="#C00"><path d="M111.325 63.12V69h10.63c2.177 0 5.915-1.592 6.045-6.042v-2.274c0-3.801-3.12-6.043-6.046-6.043h-5.298v-2.729h10.499V46h-10.077c-2.6 0-6.078 2.144-6.078 6.14v2.046c0 3.996 3.446 6.043 6.078 6.043 7.314.032-1.755 0 5.006 0v2.859m-67.378-1.346s5.724-.484 5.724-7.774S53.495 46 53.495 46H41v23h6.28v-5.548L52.71 69H62l-7.294-7.258zM51.66 57H47v-5h4.69s1.31.49 1.31 2.485C53 56.479 51.66 57 51.66 57zm23.435-11h-6.19C64.492 46 63 50.093 63 52.042V69h6.19v-4.06H75V69h6V52.042C81 47.105 76.619 46 75.095 46zM75 58h-6v-5.712S69 51 70.99 51h2.184c1.76 0 1.793 1.288 1.793 1.288V58H75zm10-12h7v23h-7zm15.379 17.055V46H94v23h15v-5.945z"/><path d="M2 69h25.519S22.64 46.594 38.792 37.52c3.521-1.723 14.73-8.162 33.077 5.497.582-.488 1.131-.878 1.131-.878S56.203 25.26 37.5 27.147c-9.4.846-20.964 9.463-27.747 20.845C2.969 59.374 2 69 2 69z"/><path d="M2 69h25.519S22.64 46.594 38.792 37.52c3.521-1.723 14.73-8.162 33.077 5.497.582-.488 1.131-.878 1.131-.878S56.203 25.26 37.5 27.147c-9.4.846-20.964 9.463-27.747 20.845C2.969 59.374 2 69 2 69z"/><path d="M2 69h25.519S22.64 46.594 38.792 37.52c3.521-1.723 14.73-8.162 33.077 5.497.582-.488 1.131-.878 1.131-.878S56.203 25.26 37.5 27.147c-9.432.846-20.996 9.463-27.78 20.845C2.937 59.374 2 69 2 69zm52.881-40L55 27.03c-.267-.148-1.01-.5-2.881-1.03L52 27.941c.98.324 1.93.677 2.881 1.059z"/><path d="M52.117 36L52 37.68c.961.027 1.922.133 2.883.32L55 36.347A22.431 22.431 0 0 0 52.117 36zM40.655 25.877H41L40.31 24a30.81 30.81 0 0 0-3.31.185L37.655 26c1-.092 2-.123 3-.123zM42 37.95l.836 2.05A26.222 26.222 0 0 1 46 38.96L45.2 37c-1.236.297-2.29.624-3.2.95zm-15-8.508L25.537 27A50.62 50.62 0 0 0 23 28.522L24.496 31c.845-.566 1.658-1.097 2.504-1.558zm7 14.486L35.346 46c.476-.72 1.037-1.381 1.654-2.043L35.738 42A15.77 15.77 0 0 0 34 43.928zm-5 10.865L31.382 57c.118-1.345.324-2.69.618-4.034L29.882 51c-.382 1.276-.647 2.552-.882 3.793zM15 39.199L12.552 37A60.663 60.663 0 0 0 10 39.66L12.655 42A35.656 35.656 0 0 1 15 39.199zM5 53.296L1.515 52C.94 53.327.303 54.87 0 55.704L3.485 57c.394-1.05 1.03-2.562 1.515-3.704zM29 62c.06 1.568.212 2.84.364 3.728L33 67a38.273 38.273 0 0 1-.727-3.846L29 62z"/></g><path d="M384.277 53s-2.605 1.614 1.854 2.16c5.403.657 8.164.563 14.118-.638 0 0 1.565 1.046 3.751 1.951-13.346 6.094-30.206-.353-19.723-3.473m-1.64-7s-2.896 2.35 1.527 2.852c5.72.647 10.238.7 18.055-.95 0 0 1.08 1.202 2.781 1.859-15.994 5.128-33.81.404-22.363-3.761" fill="#5382A1"/><path d="M396.975 32.77c3.243 3.805-.852 7.23-.852 7.23s8.235-4.333 4.453-9.758c-3.532-5.06-6.241-7.574 8.424-16.242 0 0-23.02 5.86-12.025 18.77" fill="#E76F00"/><path d="M414.665 58.557s1.958 1.533-2.155 2.72c-7.822 2.253-32.554 2.933-39.424.09-2.47-1.022 2.161-2.44 3.618-2.737 1.52-.314 2.388-.255 2.388-.255-2.747-1.84-17.753 3.612-7.622 5.174 27.627 4.26 50.361-1.918 43.195-4.992m-28.432-20.546s-12.662 2.943-4.484 4.012c3.454.452 10.337.35 16.75-.176 5.24-.432 10.501-1.352 10.501-1.352s-1.848.774-3.185 1.667c-12.858 3.31-37.697 1.77-30.546-1.615 6.047-2.86 10.964-2.536 10.964-2.536m22.028 12.639c12.986-6.934 6.982-13.599 2.79-12.7-1.026.219-1.484.41-1.484.41s.381-.615 1.11-.88c8.29-2.996 14.666 8.834-2.677 13.52 0 0 .2-.184.261-.35" fill="#5382A1"/><path d="M400.139 0s7.254 7.2-6.88 18.27c-11.335 8.881-2.585 13.945-.005 19.73-6.616-5.922-11.472-11.136-8.214-15.988 4.78-7.123 18.026-10.576 15.099-22.012" fill="#E76F00"/><path d="M386.822 68.768c12.51.851 31.723-.473 32.178-6.768 0 0-.875 2.386-10.34 4.282-10.678 2.137-23.849 1.887-31.66.518 0 0 1.6 1.407 9.822 1.968" fill="#5382A1"/><path d="M34.139 0C16.679 0 17.77 7.554 17.77 7.554l.02 7.827h16.66v2.35H11.172S0 16.466 0 34.043c0 17.578 9.751 16.954 9.751 16.954h5.82v-8.156s-.314-9.73 9.595-9.73h16.525s9.284.15 9.284-8.952V9.108S52.385 0 34.139 0zM25 5c1.66 0 3 1.34 3 3s-1.34 3-3 3-3-1.34-3-3 1.34-3 3-3z" fill="url(#a)" transform="translate(299 11)"/><path d="M34.861 68c17.46 0 16.369-7.554 16.369-7.554l-.02-7.827H34.55v-2.35h23.278S69 51.534 69 33.957c0-17.578-9.751-16.954-9.751-16.954h-5.82v8.156s.314 9.73-9.595 9.73H27.309s-9.284-.15-9.284 8.952v15.051S16.615 68 34.861 68zM44 63c-1.66 0-3-1.34-3-3s1.34-3 3-3 3 1.34 3 3-1.34 3-3 3z" fill="url(#b)" transform="translate(299 11)"/><g transform="translate(210.811 22.642)"><ellipse fill="url(#c)" cx="43.774" cy="23.327" rx="43.774" ry="23.327"/><ellipse fill="#6181B6" cx="43.774" cy="23.327" rx="42.064" ry="21.594"/><path d="M52.289 30.328l2.086-10.883c.479-2.461.068-4.298-1.163-5.442-1.197-1.11-3.249-1.664-6.258-1.664h-3.625l1.026-5.407a.732.732 0 0 0-.137-.589.612.612 0 0 0-.513-.243h-4.993a.701.701 0 0 0-.684.555l-2.223 11.542c-.205-1.317-.684-2.426-1.504-3.327-1.47-1.699-3.762-2.565-6.874-2.565h-9.61a.701.701 0 0 0-.684.554l-4.48 23.431a.732.732 0 0 0 .137.59.612.612 0 0 0 .513.242h5.027a.701.701 0 0 0 .684-.555l1.094-5.65h3.728c1.95 0 3.625-.207 4.89-.623a9.672 9.672 0 0 0 3.591-2.184 11.167 11.167 0 0 0 2.12-2.669l-.889 4.68a.732.732 0 0 0 .137.589.612.612 0 0 0 .513.242h4.993a.701.701 0 0 0 .684-.554l2.462-12.825h3.42c1.47 0 1.881.277 2.018.416.102.104.308.52.068 1.802L45.86 30.155a.732.732 0 0 0 .136.59.612.612 0 0 0 .513.242h5.13c.308-.104.582-.347.65-.659zM29.17 21.317c-.308 1.629-.89 2.807-1.744 3.466-.855.658-2.257 1.005-4.104 1.005H21.1l1.608-8.388h2.872c2.12 0 2.975.45 3.317.832.445.554.548 1.629.274 3.085zm44.459-6.447c-1.471-1.699-3.762-2.565-6.874-2.565h-9.678a.701.701 0 0 0-.684.554l-4.48 23.396a.732.732 0 0 0 .137.59.612.612 0 0 0 .513.242h5.027a.701.701 0 0 0 .684-.554l1.094-5.65h3.728c1.949 0 3.625-.208 4.89-.624a9.672 9.672 0 0 0 3.59-2.184c.89-.831 1.642-1.767 2.19-2.772a11.641 11.641 0 0 0 1.196-3.328c.582-3.015.137-5.372-1.333-7.105zm-5.233 6.447c-.308 1.629-.889 2.807-1.744 3.466-.855.658-2.257 1.005-4.104 1.005h-2.223l1.608-8.388h2.872c2.12 0 2.976.45 3.318.832.478.554.581 1.629.273 3.085z" fill="#FFF"/><path d="M25.58 16.707c1.915 0 3.18.346 3.83 1.074.65.728.787 1.941.445 3.674-.342 1.803-1.026 3.12-2.018 3.882-.991.763-2.496 1.144-4.514 1.144H20.28l1.881-9.774h3.42zM13.337 36.394h5.027l1.197-6.204h4.31c1.914 0 3.453-.208 4.684-.624 1.232-.416 2.326-1.075 3.352-2.045a10.379 10.379 0 0 0 2.052-2.6 10.19 10.19 0 0 0 1.094-3.12c.547-2.772.137-4.921-1.197-6.48-1.334-1.56-3.454-2.323-6.36-2.323h-9.679l-4.48 23.396zm25.409-29.6h4.993l-1.197 6.204h4.446c2.804 0 4.72.485 5.78 1.49 1.06 1.006 1.368 2.6.957 4.818L51.64 30.19h-5.061l1.983-10.364c.24-1.178.137-1.976-.24-2.391-.375-.416-1.23-.659-2.496-.659h-4L39.258 30.19h-4.992l4.48-23.396zm26.059 9.913c1.916 0 3.18.346 3.83 1.074.65.728.787 1.941.445 3.674-.342 1.803-1.026 3.12-2.018 3.882-.991.763-2.496 1.144-4.514 1.144h-3.043l1.88-9.774h3.42zM52.562 36.394h5.028l1.197-6.204h4.309c1.915 0 3.454-.208 4.685-.624 1.23-.416 2.325-1.075 3.351-2.045a10.379 10.379 0 0 0 2.052-2.6c.513-.936.89-1.975 1.094-3.12.547-2.772.137-4.921-1.197-6.48-1.333-1.56-3.454-2.323-6.36-2.323h-9.679l-4.48 23.396z" fill="#000004"/></g><path d="M208.512 26.338c0-.151-.03-.272-.12-.363-.09-.09-.27-.12-.51-.12h-.33v.967h.42c.36 0 .54-.181.54-.484zm.54 1.996h-.48l-.3-.665c-.15-.333-.33-.514-.51-.514h-.24v1.18h-.39v-2.783h.78c.36 0 .6.09.78.242.15.12.24.302.24.514a.69.69 0 0 1-.18.484.93.93 0 0 1-.51.272c.15.03.3.212.45.514l.36.756zm.87-1.391c0-.544-.18-1.028-.57-1.391a1.872 1.872 0 0 0-1.35-.545c-.54 0-1.02.182-1.38.545-.359.363-.539.847-.539 1.391s.18 1.028.57 1.391c.36.363.84.545 1.35.545.54 0 .99-.182 1.35-.575.36-.333.57-.786.57-1.361zm.24 0c0 .605-.21 1.15-.63 1.542-.42.424-.93.635-1.56.635a2.19 2.19 0 0 1-1.559-.604 2.109 2.109 0 0 1-.63-1.543c0-.605.21-1.119.63-1.542.42-.424.93-.635 1.56-.635.6 0 1.11.211 1.53.605.45.393.66.907.66 1.542zm-59.205 7.772h-1.35v-7.742c0-.605.03-1.36.12-2.238h-.03a9.23 9.23 0 0 1-.33 1.12l-3.9 8.86h-.659l-3.899-8.8c-.12-.242-.24-.635-.33-1.18h-.03c.03.454.06 1.21.06 2.238v7.742h-1.29V23.163h1.77l3.51 8.044c.27.605.449 1.059.509 1.391h.06c.24-.635.42-1.119.54-1.421l3.599-8.014h1.68l-.03 11.552zm4.139 0h-1.32V26.49h1.32v8.226zm.21-11.19c0 .243-.09.454-.24.605-.15.182-.36.242-.6.242s-.45-.09-.6-.242c-.18-.15-.24-.362-.24-.635a.85.85 0 0 1 .24-.605c.18-.15.36-.241.6-.241s.45.09.6.241c.15.212.24.394.24.636zm7.948 10.827c-.63.394-1.38.575-2.25.575-1.17 0-2.13-.393-2.85-1.18-.689-.755-1.049-1.753-1.049-2.933 0-1.36.39-2.45 1.17-3.266.78-.847 1.8-1.24 3.089-1.24.72 0 1.35.151 1.89.423v1.361a3.335 3.335 0 0 0-1.95-.635c-.84 0-1.5.303-2.04.877-.54.605-.81 1.391-.81 2.39 0 .967.24 1.723.75 2.268.51.544 1.17.846 2.01.846.72 0 1.38-.242 2.01-.695l.03 1.21zm6.238-6.532c-.24-.181-.57-.272-.99-.272-.54 0-.99.242-1.35.726-.42.544-.6 1.3-.6 2.238v4.203h-1.319V26.49h1.32v1.694h.03c.18-.605.48-1.059.9-1.391.36-.303.78-.454 1.26-.454.36 0 .6.03.779.121l-.03 1.361zm7.288 2.813c0-1.059-.24-1.875-.72-2.42-.45-.544-1.11-.786-1.92-.786-.809 0-1.469.272-1.949.816-.51.575-.78 1.392-.78 2.45 0 .998.24 1.754.75 2.299.48.544 1.17.846 1.98.846.87 0 1.53-.272 1.98-.846.42-.575.66-1.361.66-2.36m1.319-.06c0 1.3-.36 2.359-1.11 3.145-.75.787-1.74 1.18-2.97 1.18-1.229 0-2.189-.393-2.908-1.18-.69-.756-1.05-1.784-1.05-3.024 0-1.421.39-2.54 1.2-3.327.75-.725 1.74-1.088 2.969-1.088 1.23 0 2.16.393 2.85 1.149.689.756 1.019 1.814 1.019 3.145m6.508 1.966c0 .665-.24 1.24-.75 1.693-.54.484-1.29.726-2.249.726-.78 0-1.44-.15-2.04-.484v-1.421c.63.514 1.35.786 2.13.786 1.05 0 1.56-.393 1.56-1.149 0-.333-.12-.575-.33-.786-.24-.212-.69-.454-1.35-.756-.69-.303-1.17-.605-1.47-.938-.36-.393-.51-.877-.51-1.482 0-.695.27-1.24.81-1.693.54-.454 1.23-.696 2.07-.696.66 0 1.23.121 1.74.393v1.331c-.54-.393-1.17-.575-1.86-.575-.42 0-.78.121-1.05.333a.978.978 0 0 0-.39.817c0 .362.12.635.33.846.18.182.6.424 1.23.696.69.302 1.2.605 1.5.907.42.333.63.817.63 1.452m7.977-1.905c0-1.059-.24-1.875-.72-2.42-.45-.544-1.11-.786-1.919-.786-.81 0-1.47.272-1.95.816-.51.575-.78 1.392-.78 2.45 0 .998.24 1.754.75 2.299.51.544 1.17.846 1.98.846.87 0 1.53-.272 1.98-.846.45-.575.66-1.361.66-2.36m1.349-.06c0 1.3-.36 2.359-1.11 3.145-.72.787-1.71 1.18-2.969 1.18-1.23 0-2.22-.393-2.91-1.18-.69-.756-1.049-1.784-1.049-3.024 0-1.421.39-2.54 1.2-3.327.75-.725 1.74-1.088 2.969-1.088 1.23 0 2.16.393 2.85 1.149s1.019 1.814 1.019 3.145m5.759-6.895a1.688 1.688 0 0 0-.87-.212c-.93 0-1.38.575-1.38 1.754v1.27h1.92v1.12h-1.92v7.137h-1.32v-7.138h-1.38V26.49h1.38v-1.33c0-.908.27-1.633.84-2.117.48-.454 1.08-.666 1.77-.666.39 0 .72.06.96.152v1.149zm5.188 10.978c-.3.181-.72.272-1.23.272-1.439 0-2.129-.816-2.129-2.42V27.64h-1.41v-1.12h1.41v-1.995c.42-.121.84-.273 1.32-.424v2.45h2.07v1.119h-2.07v4.657c0 .545.09.938.27 1.18.18.242.51.363.93.363.33 0 .6-.091.84-.273v1.059zM134.16 66.894c0 .635-.24 1.21-.69 1.663-.449.484-1.019.696-1.679.696-.63 0-1.2-.242-1.62-.696a2.34 2.34 0 0 1-.66-1.663c0-.666.21-1.21.66-1.694.45-.454.99-.696 1.62-.696.66 0 1.2.242 1.68.696.45.484.69 1.058.69 1.694m29.273 1.905h-4.26l-15.476-24.104a11.2 11.2 0 0 1-.93-1.905h-.12c.12.635.18 2.026.18 4.143V68.8h-3.509V38.556h4.56l15.026 23.74c.6.938 1.02 1.604 1.2 2.027h.09c-.15-.877-.21-2.359-.21-4.446v-21.32h3.509l-.06 30.242zm22.554 0h-15.896V38.556h15.206v3.206h-11.697v10.07h10.827v3.206h-10.827v10.585h12.387zm24.114-27.067h-8.638v27.037h-3.509V41.732h-8.668v-3.206h20.815v3.206z" fill="#000"/></g></svg>