<svg width="60" height="28" viewBox="0 0 60 28" xmlns="http://www.w3.org/2000/svg"><path d="M12.212 1.995H9.388V.14h7.694v1.855H14.26V9.31h-2.05V1.995zM18.14.14h2.048v3.64h3.777V.14h2.047v9.205h-2.047V5.67h-3.777v3.675H18.14V.14zm9.884 0h2.047v9.205h-2.045V.14zm4.058 0h1.87l4.342 5.67V.14h2.012v9.205h-1.73L34.094 3.5v5.845h-2.012V.14zm10.2 0h2.047v4.025L48.104.14h2.47L46.8 4.025l3.953 5.285h-2.435l-2.86-3.92L44.4 6.51v2.8h-2.047V.14h-.07zM6.953 22.33v2.52c0 1.925-.953 2.87-2.894 2.87H3c-1.94 0-2.86-.945-2.86-2.835V21.63h2.33v3.185c0 .595.283.875.918.875h.318c.635 0 .918-.28.918-.875V22.68c0-.63-.212-.945-.67-1.26l-2.4-1.75c-1.06-.735-1.38-1.47-1.38-2.66v-2.135c0-1.925.954-2.87 2.896-2.87h.99c1.905 0 2.858.945 2.858 2.835v2.8h-2.33v-2.73c0-.595-.282-.875-.882-.875h-.282c-.6 0-.883.28-.883.875v1.715c0 .63.214.945.673 1.26l2.4 1.75c.988.77 1.34 1.435 1.34 2.695zm2.894 5.25V14.245H7.694V12.11h6.67v2.135h-2.152V27.58H9.847zm12.213-5.25v5.25h-2.4v-5.215c0-.7-.32-.98-.99-.98h-1.058v6.195h-2.4V12.11h3.917c1.94 0 2.893.945 2.893 2.87v2.905c0 1.365-.495 2.03-1.377 2.38 1.024.315 1.412.91 1.412 2.065zm-3.284-8.12h-1.164v5.11h1.06c.67 0 .987-.315.987-.945V15.12c0-.595-.285-.91-.885-.91zm11.79 13.37H28.2l-.318-2.415h-2.47l-.283 2.415h-2.225l2.223-15.505h3.176l2.26 15.505zm-4.87-4.515h1.94l-.954-7.735-.988 7.735zm8.116 4.515h-2.4V12.11h3.74c1.942 0 2.895.945 2.895 2.87v4.095c0 1.925-.953 2.87-2.894 2.87h-1.377v5.635h.036zm.988-13.37h-.988v5.705h.988c.6 0 .882-.28.882-.91V15.12c0-.63-.282-.91-.882-.91zm6.635 13.37h-2.4V12.11h3.74c1.943 0 2.896.945 2.896 2.87v4.095c0 1.925-.95 2.87-2.893 2.87H41.4v5.635h.035zm.953-13.37H41.4v5.705h.988c.6 0 .883-.28.883-.91V15.12c.037-.63-.28-.91-.88-.91zm9.565-2.1v2.135h-2.93v4.375h2.824v2.135h-2.823v4.655h2.964v2.135h-5.364v-15.47h5.33v.035zm1.023 0h3.6c2.33 0 3.424 1.12 3.424 3.395v8.715c0 2.275-1.094 3.395-3.424 3.395h-3.6V12.11zm2.4 13.405h.883c.95 0 1.374-.455 1.374-1.365v-8.575c0-.945-.423-1.365-1.376-1.365h-.884v11.305zM6.918 5.425a.54.54 0 0 1-.53.525H4.976a.54.54 0 0 1-.53-.525v-1.4a.54.54 0 0 1 .53-.525h1.412a.54.54 0 0 1 .53.525v1.4zm48.53 0a.54.54 0 0 1-.53.525h-1.41a.54.54 0 0 1-.53-.525v-1.4a.54.54 0 0 1 .53-.525h1.41a.54.54 0 0 1 .53.525v1.4z" fill-rule="evenodd"/></svg>