<svg width="16" height="16" viewBox="0 0 16 16" xmlns="http://www.w3.org/2000/svg"><path d="M0 1.994C0 .894.895 0 1.994 0h12.012C15.106 0 16 .895 16 1.994v12.012c0 1.1-.895 1.994-1.994 1.994H1.994C.894 16 0 15.105 0 14.006V1.994zm5.102 10.504H3.6V14h4.878v-1.502H6.905V9.405h1.343c1.714 0 2.845-.194 3.676-1.025.513-.513 1.007-1.45 1.007-2.67 0-1.52-.688-3.71-4.01-3.71H3.6v1.502h1.502v8.996zm1.803-4.542V3.502h2.068c1.325 0 2.12.778 2.12 2.192 0 1.237-.477 2.262-2.686 2.262H6.905z" fill-rule="evenodd"/></svg>