<svg width="54" height="25" viewBox="0 0 54 25" xmlns="http://www.w3.org/2000/svg"><title>postmark-icon</title><g fill="#006EB3"><path d="M12.136.15C7.383.15 3.09 1.162.024 2.795v1.282C3.09 2.445 7.384 1.43 12.136 1.43c6.373 0 11.254 2.634 14.79 4.517 3.068 1.633 7.36 2.648 12.114 2.648 6.373 0 11.92-1.825 14.79-4.517V2.796c-2.87 2.692-8.418 4.517-14.79 4.517-4.753 0-9.046-1.015-12.113-2.648C23.39 2.782 18.51.15 12.137.15"/><path d="M12.136 5.6C7.383 5.6 3.09 6.614.024 8.247V9.53C3.09 7.896 7.384 6.88 12.136 6.88c6.373 0 11.254 2.633 14.79 4.516 3.068 1.633 7.36 2.648 12.114 2.648 6.373 0 11.92-1.825 14.79-4.517V8.246c-2.87 2.693-8.418 4.517-14.79 4.517-4.753 0-9.046-1.015-12.113-2.648C23.39 8.233 18.51 5.6 12.137 5.6"/><path d="M12.136 11.05C7.383 11.05 3.09 12.067.024 13.7v1.282c3.067-1.632 7.36-2.647 12.112-2.647 6.373 0 11.254 2.633 14.79 4.516 3.068 1.632 7.36 2.647 12.114 2.647 6.373 0 11.92-1.825 14.79-4.517v-1.282c-2.87 2.693-8.418 4.517-14.79 4.517-4.753 0-9.046-1.015-12.113-2.648-3.537-1.883-8.418-4.516-14.79-4.516"/><path d="M12.136 16.503c-4.753 0-9.046 1.014-12.112 2.647v1.282c3.067-1.633 7.36-2.647 12.112-2.647 6.373 0 11.254 2.633 14.79 4.516 3.068 1.634 7.36 2.65 12.114 2.65 6.373 0 11.92-1.826 14.79-4.518V19.15c-2.87 2.692-8.418 4.517-14.79 4.517-4.753 0-9.046-1.015-12.113-2.648-3.537-1.884-8.418-4.517-14.79-4.517"/></g></svg>