<svg width="20" height="16" viewBox="0 0 20 16" xmlns="http://www.w3.org/2000/svg"><title>quote</title><path d="M8.72 1.977c-.894.5-1.616.93-2.168 1.29-.55.36-1.112.836-1.683 1.427A6.52 6.52 0 0 0 3.64 6.44c-.285.61-.485 1.396-.6 2.358h1.37c1.18 0 2.107.282 2.782.845.675.564 1.013 1.39 1.013 2.482 0 .776-.3 1.502-.9 2.176-.598.676-1.42 1.013-2.467 1.013-1.635 0-2.805-.522-3.51-1.566C.63 12.702.277 11.33.277 9.63c0-1.202.266-2.297.8-3.286a11.51 11.51 0 0 1 1.94-2.648 13.92 13.92 0 0 1 2.48-2.024A96.244 96.244 0 0 1 7.694.312L8.72 1.978zm10.556 0c-.894.5-1.617.93-2.168 1.29-.552.36-1.113.836-1.683 1.427-.552.573-.966 1.16-1.24 1.76-.277.6-.472 1.382-.586 2.344h1.368c1.18 0 2.106.282 2.782.845.675.564 1.012 1.39 1.012 2.482 0 .776-.3 1.502-.898 2.176-.6.676-1.422 1.013-2.468 1.013-1.636 0-2.805-.522-3.51-1.566-.703-1.045-1.055-2.417-1.055-4.118 0-1.202.268-2.297.8-3.286a11.66 11.66 0 0 1 1.94-2.648 13.92 13.92 0 0 1 2.482-2.024A96.24 96.24 0 0 1 18.25.312l1.026 1.665z" fill="#E5E5E5" fill-rule="evenodd"/></svg>