<svg width="61" height="62" viewBox="0 0 61 62" xmlns="http://www.w3.org/2000/svg"><title>Rectangle 153 + Group 3</title><g transform="translate(0 .42)" fill="none"><circle fill="#5CCC99" cx="30.5" cy="30.5" r="30.5"/><path d="M47.907 30.504l-9.182-3.934 2.962-5.866c.278-.556.058-.78-.5-.5l-5.863 2.963-3.934-9.184c-.247-.57-.642-.57-.887 0l-3.934 9.184-5.867-2.962c-.556-.282-.777-.058-.5.5l2.964 5.865-9.182 3.934c-.572.243-.572.64 0 .887l9.182 3.933-2.964 5.866c-.276.552-.056.776.5.498l5.866-2.962 3.933 9.18c.245.574.64.574.887 0l3.934-9.18 5.864 2.962c.556.278.777.054.5-.5l-2.963-5.865 9.182-3.932c.57-.246.57-.642 0-.886zm-16.96 4.305a3.864 3.864 0 0 1-3.866-3.866 3.864 3.864 0 0 1 3.866-3.865 3.864 3.864 0 0 1 3.865 3.864 3.864 3.864 0 0 1-3.864 3.865z" stroke="#fff" stroke-width="2"/></g></svg>