<svg width="64" height="67" viewBox="0 0 64 67" xmlns="http://www.w3.org/2000/svg"><title>Rectangle 153 + Group 2</title><g fill="none" fill-rule="evenodd"><rect fill="#027ACE" width="64" height="67" rx="4"/><g transform="translate(7.566 8.338)" stroke="#FFF"><rect stroke-width="2" x="3.612" y="3.587" width="42.14" height="43.964" rx="4"/><g transform="translate(16.434 16.662)" stroke-width="2"><ellipse cx="8.614" cy="8.518" rx="8.614" ry="8.518"/><ellipse cx="8.729" cy="8.632" rx="4.594" ry="4.543"/><path d="M9.27 0v3.92m5.69-1.007l-2.803 2.77M.032 7.896h3.92M2.944 2.207L5.716 5.01M7.96 17.037v-3.92m-5.69 1.007l2.8-2.77m12.25-2.177h-3.918m1.67 5.459L12.3 11.834"/></g><path d="M4.434 12.162v4.61" stroke-width="4" stroke-linecap="round"/><path d="M38.373 21.18l.096 9.488" stroke-width="3" stroke-linecap="round"/><path d="M4.434 32.162v4.61" stroke-width="4" stroke-linecap="round"/></g></g></svg>