<svg width="504" height="87" viewBox="0 0 504 87" xmlns="http://www.w3.org/2000/svg"><g fill="none" fill-rule="evenodd"><path d="M496.636 71.957c-3.95 0-7.165 3.216-7.165 7.167 0 3.886 3.28 7.167 7.165 7.167 3.952 0 7.168-3.215 7.168-7.167 0-4.019-3.149-7.167-7.168-7.167m0-28.666c-3.95 0-7.165 3.215-7.165 7.166 0 3.885 3.28 7.168 7.165 7.168 3.952 0 7.168-3.216 7.168-7.168 0-4.018-3.149-7.166-7.168-7.166m0-28.666c-3.95 0-7.165 3.215-7.165 7.166 0 3.885 3.28 7.166 7.165 7.166 3.952 0 7.168-3.215 7.168-7.166 0-4.018-3.149-7.166-7.168-7.166" fill="#34AD00"/><path d="M137.528.291c-26.504 0-38.847 7.758-38.847 24.412 0 13.227 6.01 20.477 38.859 23.392 24.755 2.21 29.762 4.553 29.762 13.931 0 6.011-3.368 12.911-29.628 12.911-21.311 0-27.107-5.11-29.553-13.357-1.094-3.693-1.197-5.957-1.199-5.98l-.059-1.491-10.833-.004.047 1.6c.004.154.119 3.795.795 6.423 3.199 12.426 6.223 24.163 40.802 24.163 28.26 0 41.422-7.711 41.422-24.265 0-17.449-8.491-22.676-41.297-25.42-18.185-1.546-28.041-3.901-28.041-11.903 0-6.079 3.172-13.058 27.916-13.058 22.897 0 27.496 7.673 28.962 13.446l.71 3.046h10.27s-.176-3.012-.254-3.526c-1.71-11.322-7.784-24.32-39.834-24.32zm195.356 0c-26.504 0-38.846 7.758-38.846 24.412v59.588h11.077V24.703c0-6.079 3.14-13.058 27.625-13.058 24.741 0 27.915 6.979 27.915 13.058v51.629l3.16 7.959h7.915V24.703c0-16.654-12.344-24.412-38.846-24.412zM13.206 25.06c1.461-5.742 6.058-13.415 28.955-13.415 16.809 0 27.672 4.881 27.672 12.434 0 6.22-9.873 10.485-27.799 12.01C13.86 38.445.739 46.686.739 62.026c0 16.101 13.076 24.265 38.862 24.265 9.649 0 23.869-4.053 30.984-8.639l2.655 6.758h7.913V24.185C81.153 12.634 70.948.291 42.307.291 18.169.291 5.138 8.24 2.477 24.594c-.219 1.193-.297 3.543-.297 3.543h10.311s.307-1.697.715-3.077zm26.395 49.877c-17.455 0-27.067-4.585-27.067-12.911 0-5.491 3.383-12.094 29.763-14.449 12.936-1.148 20.87-2.42 27.971-6.064v21.282c-.535 2.94-14.006 12.142-30.667 12.142zM206.305 25.06c1.46-5.742 6.058-13.415 28.954-13.415 16.811 0 27.672 4.881 27.672 12.434 0 6.22-9.872 10.485-27.799 12.01-28.174 2.356-41.295 10.597-41.295 25.937 0 16.101 13.076 24.265 38.863 24.265 9.647 0 23.869-4.053 30.983-8.639l2.655 6.639h7.914V24.185c0-11.551-10.206-23.894-38.846-23.894-24.139 0-37.168 7.949-39.83 24.303-.219 1.193-.297 3.543-.297 3.543h10.309s.309-1.697.717-3.077zM232.7 74.937c-17.455 0-27.067-4.585-27.067-12.911 0-5.491 3.382-12.094 29.763-14.449 12.936-1.148 20.869-2.42 27.971-6.064v21.282c-.536 2.94-14.006 12.142-30.667 12.142zM400.023 25.06c1.461-5.742 6.058-13.415 28.955-13.415 16.81 0 27.671 4.881 27.671 12.434 0 6.22-9.871 10.485-27.799 12.01-28.173 2.356-41.294 10.597-41.294 25.937 0 16.101 13.075 24.265 38.863 24.265 9.647 0 23.869-4.053 30.982-8.639l2.656 6.639h7.913V24.185c0-11.551-10.205-23.894-38.845-23.894-24.14 0-37.169 7.949-39.831 24.303-.218 1.193-.296 3.543-.296 3.543h10.31s.307-1.697.715-3.077zm26.396 49.877c-17.456 0-27.068-4.585-27.068-12.911 0-5.491 3.383-12.094 29.764-14.449 12.935-1.148 20.869-2.42 27.97-6.064v21.282c-.536 2.94-14.005 12.142-30.666 12.142z" fill="#1F8DD6"/></g></svg>