<svg xmlns="http://www.w3.org/2000/svg" viewBox="0 0 838 249" enable-background="new 0 0 838 249"><style type="text/css">.st0{fill:#C73A63;} .st1{fill:#4B4B4B;} .st2{fill:#4A4A4A;} .st3{enable-background:new ;} .st4{fill:#22252B;} .st5{fill:none;stroke:#353942;stroke-width:2;stroke-linecap:round;stroke-linejoin:round;stroke-miterlimit:10;} .st6{fill:#FFDE00;stroke:#353942;stroke-width:3;stroke-linecap:round;stroke-linejoin:round;stroke-miterlimit:10;} .st7{fill:none;stroke:#353942;stroke-width:3;stroke-linecap:round;stroke-linejoin:round;stroke-miterlimit:10;} .st8{fill:#353942;} .st9{fill:#FFFFFF;} .st10{fill:#4A90E2;stroke:#353942;stroke-width:3;stroke-linecap:round;stroke-linejoin:round;stroke-miterlimit:10;} .st11{fill:#FFFFFF;stroke:#353942;stroke-width:2;stroke-miterlimit:10;}</style><path class="st0" d="M61.4 47.2c-2.4 4.1-4.8 8.1-7.2 12.1-.6 1-.9 1.8-.4 3.1 1.4 3.6-.6 7-4.2 8-3.4.9-6.7-1.3-7.4-5-.6-3.2 1.9-6.4 5.4-6.9.3 0 .6 0 1.1-.1 1.7-2.9 3.5-5.9 5.4-9-3.4-3.4-5.4-7.3-5-12.2.3-3.5 1.7-6.4 4.2-8.9 4.8-4.7 12-5.4 17.6-1.8 5.4 3.5 7.8 10.2 5.7 15.9-1.6-.4-3.2-.9-4.9-1.3.7-3.2.2-6.1-2-8.5-1.4-1.6-3.3-2.5-5.3-2.8-4.2-.6-8.3 2-9.5 6.1-1.2 4.6.8 8.4 6.5 11.3z"/><path class="st1" d="M68.4 42.3c1.7 3 3.5 6.1 5.2 9.2 8.8-2.7 15.4 2.1 17.8 7.3 2.9 6.3.9 13.7-4.7 17.6-5.8 4-13.1 3.3-18.2-1.8 1.3-1.1 2.6-2.2 4-3.4 5.1 3.3 9.5 3.1 12.8-.8 2.8-3.3 2.7-8.2-.1-11.5-3.3-3.7-7.8-3.9-13.2-.3l-6.7-11.9c-.7-1.3-1.5-2.1-3.2-2.4-2.7-.5-4.5-2.8-4.6-5.5-.1-2.6 1.4-5 3.8-5.9 2.4-.9 5.2-.2 6.8 1.8 1.3 1.7 1.7 3.5 1 5.6-.1.8-.4 1.3-.7 2z"/><path class="st2" d="M72.6 67.2h-10.6c-1 4.2-3.2 7.5-7 9.7-2.9 1.7-6.1 2.2-9.4 1.7-6.2-1-11.2-6.6-11.7-12.8-.5-7.1 4.4-13.4 10.9-14.8.4 1.6.9 3.3 1.4 4.9-6 3-8 6.9-6.4 11.7 1.5 4.2 5.6 6.5 10.2 5.6s7-4.8 6.7-10.9h13.2c1.7 0 3-.2 4.3-1.7 2.1-2.5 6-2.3 8.3.1 2.3 2.4 2.2 6.3-.2 8.6-2.4 2.2-6.2 2.1-8.4-.3-.5-.6-.9-1.2-1.3-1.8z"/><g class="st3"><path class="st4" d="M349.3 28.6h1.6l.8.1.6.2c.4.2.7.5 1 .9.3.4.4.9.4 1.5s-.1 1.1-.4 1.6-.7.8-1.3 1c.7.1 1.2.5 1.6 1 .4.5.6 1.1.6 1.8 0 .4-.1.8-.2 1.2-.1.4-.4.7-.7 1-.3.3-.7.5-1.1.7-.4.2-.9.3-1.5.3h-5.5v-11.3h4.1zm.4 4.9c.9 0 1.5-.2 1.9-.5.4-.3.6-.8.6-1.4 0-.4-.1-.7-.2-1s-.3-.4-.5-.5-.5-.2-.8-.2l-.9-.1h-3v3.6h2.9zm.8 5.2c.7 0 1.2-.2 1.6-.5.4-.4.6-.9.6-1.5 0-.4-.1-.7-.2-.9-.1-.2-.3-.4-.6-.6-.2-.1-.5-.2-.8-.3-.3-.1-.6-.1-.9-.1h-3.5v4h3.8zM355.7 34.2c.2-.5.4-1 .8-1.4.3-.4.8-.7 1.3-.9s1.1-.3 1.7-.3c.7 0 1.2.1 1.7.3s.9.5 1.3.9.6.8.8 1.4c.2.5.3 1.1.3 1.7s-.1 1.2-.3 1.7c-.2.5-.4 1-.8 1.4-.3.4-.8.7-1.3.9-.5.2-1.1.3-1.7.3-.7 0-1.2-.1-1.7-.3-.5-.2-.9-.5-1.3-.9-.3-.4-.6-.8-.8-1.4-.2-.5-.3-1.1-.3-1.7s.1-1.2.3-1.7zm1.4 3c.1.4.3.7.6 1 .2.3.5.5.8.6.3.1.6.2 1 .2s.7-.1 1-.2c.3-.1.6-.3.8-.6.2-.3.4-.6.6-1s.2-.8.2-1.3-.1-.9-.2-1.3-.3-.7-.6-1c-.2-.3-.5-.5-.8-.6-.3-.1-.6-.2-1-.2s-.7.1-1 .2c-.3.1-.6.3-.8.6-.2.3-.4.6-.6 1s-.2.8-.2 1.3.1.9.2 1.3zM370.7 40v-1.3c-.3.5-.7.9-1.1 1.1-.4.2-1 .4-1.6.4-.5 0-1-.1-1.4-.2-.4-.1-.7-.3-.9-.6-.2-.3-.4-.6-.5-1-.1-.4-.1-.8-.1-1.2v-5.4h1.4v5.6c0 .5.1.9.4 1.2.3.3.7.4 1.2.4.4 0 .8-.1 1.1-.2s.6-.3.8-.5c.2-.2.4-.5.5-.8.1-.3.2-.7.2-1v-4.7h1.4v8.2h-1.4zM375.3 31.7v1.3c.6-1 1.5-1.5 2.7-1.5.5 0 1 .1 1.4.2.4.1.7.4.9.6.2.3.4.6.5 1s.1.8.1 1.2v5.5h-1.4v-5.6c0-.5-.1-.9-.4-1.2-.3-.3-.7-.4-1.2-.4-.4 0-.8.1-1.1.2-.3.1-.6.3-.8.5-.2.2-.4.5-.5.8-.1.3-.2.7-.2 1v4.7h-1.3v-8.3h1.3zM387.8 33.2c-.3-.3-.8-.4-1.4-.4-.5 0-.9.1-1.2.3-.3.2-.6.4-.8.7-.2.3-.3.6-.4 1-.1.4-.1.8-.1 1.2 0 .4 0 .8.1 1.1.1.4.2.7.4 1 .2.3.4.5.8.7.3.2.7.3 1.1.3.7 0 1.2-.2 1.6-.5.4-.4.6-.8.7-1.5h1.4c-.1 1-.5 1.8-1.1 2.4-.6.6-1.4.8-2.5.8-.6 0-1.2-.1-1.7-.3s-.9-.5-1.2-.9c-.3-.4-.6-.8-.7-1.3-.2-.5-.2-1.1-.2-1.7 0-.6.1-1.2.2-1.7.2-.5.4-1 .7-1.4.3-.4.7-.7 1.2-.9.5-.2 1.1-.3 1.7-.3.5 0 .9.1 1.3.2s.8.3 1.1.5c.3.2.6.5.8.9s.3.8.4 1.3h-1.4c-.2-.8-.4-1.2-.8-1.5zM397.3 39.5c-.6.5-1.4.7-2.3.7-.7 0-1.2-.1-1.7-.3-.5-.2-.9-.5-1.2-.9-.3-.4-.6-.8-.7-1.4s-.3-1.1-.3-1.7c0-.6.1-1.2.3-1.7.2-.5.5-1 .8-1.4s.8-.7 1.2-.9c.5-.2 1-.3 1.6-.3.7 0 1.3.2 1.8.5s.9.7 1.2 1.2c.3.5.5 1 .6 1.5.1.6.2 1.1.1 1.6h-6.2c0 .4 0 .7.1 1 .1.3.3.6.5.9.2.3.5.5.8.6.3.2.7.2 1.2.2.6 0 1-.1 1.4-.4.4-.3.6-.7.7-1.2h1.3c-.2.8-.6 1.5-1.2 2zm-.3-5.3c-.1-.3-.3-.5-.5-.7s-.5-.4-.7-.5c-.3-.1-.6-.2-.9-.2-.4 0-.7.1-1 .2-.3.1-.5.3-.7.5-.2.2-.4.5-.5.7-.1.3-.2.6-.2.9h4.8c-.1-.3-.2-.7-.3-.9zM405.8 31.7v1.3c.6-1 1.5-1.5 2.7-1.5.5 0 1 .1 1.4.2.4.1.7.4.9.6.2.3.4.6.5 1s.1.8.1 1.2v5.5h-1.4v-5.6c0-.5-.1-.9-.4-1.2-.3-.3-.7-.4-1.2-.4-.4 0-.8.1-1.1.2-.3.1-.6.3-.8.5-.2.2-.4.5-.5.8-.1.3-.2.7-.2 1v4.7h-1.4v-8.3h1.4zM413.2 34.2c.2-.5.4-1 .8-1.4.3-.4.8-.7 1.3-.9s1.1-.3 1.7-.3c.7 0 1.2.1 1.7.3s.9.5 1.3.9.6.8.8 1.4c.2.5.3 1.1.3 1.7s-.1 1.2-.3 1.7c-.2.5-.4 1-.8 1.4-.3.4-.8.7-1.3.9-.5.2-1.1.3-1.7.3-.7 0-1.2-.1-1.7-.3-.5-.2-.9-.5-1.3-.9-.3-.4-.6-.8-.8-1.4-.2-.5-.3-1.1-.3-1.7s.1-1.2.3-1.7zm1.4 3c.1.4.3.7.6 1 .2.3.5.5.8.6.3.1.6.2 1 .2s.7-.1 1-.2c.3-.1.6-.3.8-.6.2-.3.4-.6.6-1s.2-.8.2-1.3-.1-.9-.2-1.3-.3-.7-.6-1c-.2-.3-.5-.5-.8-.6-.3-.1-.6-.2-1-.2s-.7.1-1 .2c-.3.1-.6.3-.8.6-.2.3-.4.6-.6 1s-.2.8-.2 1.3.1.9.2 1.3zM426.1 31.7v1.2h-1.6v5.5c0 .1.1.2.2.2.1.1.2.1.3.1h1.1v1.3h-1c-.4 0-.7 0-.9-.1s-.5-.1-.6-.3-.3-.3-.3-.5-.1-.5-.1-.9v-5.3h-1.4v-1.2h1.4v-2.5h1.4v2.5h1.5zM427.7 30.2v-1.7h1.4v1.7h-1.4zm1.4 1.5v8.3h-1.4v-8.3h1.4zM430.3 32.9v-1.2h1.4v-1.2c0-.7.2-1.2.6-1.5.4-.3 1-.5 1.7-.5h.4s.3.1.4.1v1.2c-.1 0-.2-.1-.4-.1h-.4c-.3 0-.6.1-.8.2-.2.1-.3.4-.3.7v1.2h1.6v1.2h-1.6v7h-1.4v-7.1h-1.2zM436 30.2v-1.7h1.4v1.7h-1.4zm1.4 1.5v8.3h-1.4v-8.3h1.4zM444.4 33.2c-.3-.3-.8-.4-1.4-.4-.5 0-.9.1-1.2.3-.3.2-.6.4-.8.7-.2.3-.3.6-.4 1-.1.4-.1.8-.1 1.2 0 .4 0 .8.1 1.1.1.4.2.7.4 1 .2.3.4.5.8.7.3.2.7.3 1.1.3.7 0 1.2-.2 1.6-.5.4-.4.6-.8.7-1.5h1.4c-.1 1-.5 1.8-1.1 2.4-.6.6-1.4.8-2.5.8-.6 0-1.2-.1-1.7-.3-.5-.2-.9-.5-1.2-.9-.3-.4-.6-.8-.7-1.3-.2-.5-.2-1.1-.2-1.7 0-.6.1-1.2.2-1.7.2-.5.4-1 .7-1.4.3-.4.7-.7 1.2-.9s1.1-.3 1.7-.3c.5 0 .9.1 1.3.2s.8.3 1.1.5c.3.2.6.5.8.9s.3.8.4 1.3h-1.4c-.2-.8-.4-1.2-.8-1.5zM455.4 40c-.2.1-.6.2-1 .2s-.6-.1-.8-.3-.3-.5-.3-1c-.4.4-.8.8-1.3 1s-1 .3-1.6.3c-.4 0-.7 0-1.1-.1s-.6-.2-.9-.4c-.2-.2-.4-.4-.6-.7-.1-.3-.2-.6-.2-1.1 0-.5.1-.9.2-1.2.2-.3.4-.5.6-.7.3-.2.6-.3.9-.4.3-.1.7-.2 1-.2l1.1-.2s.6-.1.9-.2.5-.2.6-.3c.2-.1.2-.3.2-.6s-.1-.5-.2-.7c-.1-.2-.3-.3-.4-.4-.2-.1-.4-.2-.6-.2h-.6c-.6 0-1.1.1-1.4.3s-.6.6-.6 1.2h-1.4c0-.5.1-.9.3-1.3.2-.4.4-.6.8-.9s.7-.4 1.1-.5c.4-.1.9-.1 1.3-.1s.7 0 1.1.1c.4.1.7.2 1 .3s.5.4.7.7c.2.3.3.7.3 1.2v4.2c0 .3 0 .6.1.7 0 .1.2.2.4.2.1 0 .3 0 .4-.1v1.2zm-2.2-4.3c-.2.1-.4.2-.7.3-.3.1-.6.1-.9.1l-.9.1c-.3 0-.6.1-.8.2-.2.1-.4.3-.6.5s-.2.5-.2.8c0 .2 0 .4.1.6.1.2.2.3.4.4.1.1.3.2.5.2l.6.1c.4 0 .8-.1 1.2-.2.3-.1.6-.3.8-.5s.4-.4.4-.6c.1-.2.1-.4.1-.6v-1.4zM460.2 31.7v1.2h-1.6v5.5c0 .1.1.2.2.2.1.1.2.1.3.1h1.1v1.3h-1c-.4 0-.7 0-.9-.1s-.5-.1-.6-.3-.3-.3-.3-.5-.1-.5-.1-.9v-5.3h-1.4v-1.2h1.4v-2.5h1.4v2.5h1.5zM461.8 30.2v-1.7h1.4v1.7h-1.4zm1.3 1.5v8.3h-1.4v-8.3h1.4zM465.1 34.2c.2-.5.4-1 .8-1.4s.8-.7 1.3-.9c.5-.2 1.1-.3 1.7-.3.7 0 1.2.1 1.7.3s.9.5 1.3.9.6.8.8 1.4c.2.5.3 1.1.3 1.7s-.1 1.2-.3 1.7c-.2.5-.4 1-.8 1.4-.3.4-.8.7-1.3.9-.5.2-1.1.3-1.7.3-.7 0-1.2-.1-1.7-.3-.5-.2-.9-.5-1.3-.9-.3-.4-.6-.8-.8-1.4-.2-.5-.3-1.1-.3-1.7s.1-1.2.3-1.7zm1.3 3c.1.4.3.7.6 1 .2.3.5.5.8.6s.6.2 1 .2.7-.1 1-.2.6-.3.8-.6c.2-.3.4-.6.6-1s.2-.8.2-1.3-.1-.9-.2-1.3-.3-.7-.6-1-.5-.5-.8-.6-.6-.2-1-.2-.7.1-1 .2-.6.3-.8.6-.4.6-.6 1-.2.8-.2 1.3.1.9.2 1.3zM475.7 31.7v1.3c.6-1 1.5-1.5 2.7-1.5.5 0 1 .1 1.4.2s.7.4.9.6c.2.3.4.6.5 1 .1.4.1.8.1 1.2v5.5h-1.4v-5.6c0-.5-.1-.9-.4-1.2-.3-.3-.7-.4-1.2-.4-.4 0-.8.1-1.1.2-.3.1-.6.3-.8.5-.2.2-.4.5-.5.8-.1.3-.2.7-.2 1v4.7h-1.4v-8.3h1.4zM484.4 38.2c.1.2.3.4.5.5.2.1.4.2.7.3s.5.1.8.1h.7c.2 0 .5-.1.6-.2.2-.1.4-.2.5-.4.1-.2.2-.4.2-.6 0-.4-.1-.6-.4-.8-.3-.2-.6-.3-1-.4-.4-.1-.8-.2-1.3-.3-.5-.1-.9-.2-1.3-.4s-.7-.4-1-.7c-.3-.3-.4-.7-.4-1.2 0-.4.1-.8.3-1.1.2-.3.4-.5.7-.7.3-.2.6-.3 1-.4.4-.1.7-.1 1.1-.1.5 0 .9 0 1.3.1s.7.2 1 .4.5.5.7.8c.2.3.3.8.3 1.3h-1.4c0-.3-.1-.5-.2-.7-.1-.2-.3-.3-.4-.4-.2-.1-.4-.2-.6-.2-.2 0-.4-.1-.7-.1h-.6c-.2 0-.4.1-.6.2-.2.1-.3.2-.4.3-.1.1-.2.3-.2.5s.1.4.2.6.4.3.6.4c.3.1.5.2.9.3.3.1.6.1 1 .2l1 .3s.6.2.9.4c.2.2.5.4.6.7s.2.6.2 1c0 .5-.1.9-.3 1.2-.2.3-.5.6-.8.8-.3.2-.7.3-1.1.4-.4.1-.8.1-1.3.1s-.9 0-1.3-.1-.8-.3-1.1-.5c-.3-.2-.6-.5-.8-.9s-.3-.8-.3-1.3h1.4c.1.1.1.3.3.6z"/></g><path class="st5" d="M348.4 192.3c22.3 17.4 93.1 24.3 140.6.7m-3.1 9.2l5.6-10-11.1-3.6m-132-116.6c22.3-17.4 93.1-24.3 140.6-.7M485.9 62.1l5.6 10-11.1 3.6"/><g class="st3"><path class="st4" d="M368.7 224c.2-.7.6-1.4 1-1.9.5-.6 1-1 1.7-1.3.7-.3 1.5-.5 2.4-.5.9 0 1.7.2 2.4.5s1.3.8 1.7 1.3c.5.6.8 1.2 1 1.9.2.7.3 1.5.3 2.2s-.1 1.5-.3 2.2c-.2.7-.6 1.4-1 1.9-.5.6-1 1-1.7 1.3s-1.5.5-2.4.5c-.9 0-1.7-.2-2.4-.5s-1.3-.8-1.7-1.3c-.5-.6-.8-1.2-1-1.9-.2-.7-.3-1.5-.3-2.2s.1-1.4.3-2.2zm1.4 4c.1.6.4 1.1.7 1.5s.7.8 1.2 1.1c.5.3 1.1.4 1.8.4s1.3-.1 1.8-.4c.5-.3.9-.6 1.2-1.1.3-.4.6-1 .7-1.5.1-.6.2-1.1.2-1.7s-.1-1.1-.2-1.7-.4-1.1-.7-1.5c-.3-.4-.7-.8-1.2-1.1-.5-.3-1.1-.4-1.8-.4s-1.3.1-1.8.4c-.5.3-.9.6-1.2 1.1-.3.4-.6 1-.7 1.5s-.2 1.1-.2 1.7.1 1.1.2 1.7zM382.4 223.7v1.1c.2-.5.6-.8 1.1-1 .5-.2 1-.3 1.6-.3.6 0 1.2.1 1.7.4.5.2.9.6 1.2 1 .3.4.6.9.7 1.4.2.5.2 1.1.2 1.7 0 .6-.1 1.1-.2 1.7-.2.5-.4 1-.7 1.4s-.7.7-1.2.9c-.5.2-1 .3-1.7.3-.2 0-.4 0-.7-.1-.3 0-.5-.1-.7-.2-.2-.1-.5-.2-.7-.4l-.6-.6v4.3h-1.4v-11.4h1.4zm4.9 3c-.1-.4-.3-.7-.5-1s-.5-.5-.8-.7-.7-.3-1.1-.3c-.5 0-.8.1-1.2.3-.3.2-.6.4-.8.7-.2.3-.3.6-.4 1-.1.4-.1.8-.1 1.1 0 .4 0 .8.1 1.2.1.4.2.7.5 1s.5.5.8.7c.3.2.7.3 1.2.3s.9-.1 1.2-.3c.3-.2.6-.4.8-.7s.3-.6.4-1c.1-.4.1-.8.1-1.2-.1-.4-.1-.8-.2-1.1zM396.3 231.5c-.6.5-1.4.7-2.3.7-.7 0-1.2-.1-1.7-.3-.5-.2-.9-.5-1.2-.9s-.6-.8-.7-1.4c-.2-.5-.3-1.1-.3-1.7 0-.6.1-1.2.3-1.7.2-.5.5-1 .8-1.4s.8-.7 1.2-.9c.5-.2 1-.3 1.6-.3.7 0 1.3.2 1.8.5s.9.7 1.2 1.2c.3.5.5 1 .6 1.5.1.6.2 1.1.1 1.6h-6.2c0 .4 0 .7.1 1 .1.3.3.6.5.9.2.3.5.5.8.6.3.2.7.2 1.2.2.6 0 1-.1 1.4-.4s.6-.7.7-1.2h1.3c-.2.8-.6 1.5-1.2 2zm-.3-5.3c-.1-.3-.3-.5-.5-.7s-.5-.4-.7-.5c-.3-.1-.6-.2-.9-.2-.4 0-.7.1-1 .2-.3.1-.5.3-.7.5-.2.2-.4.5-.5.7-.1.3-.2.6-.2.9h4.8c-.1-.3-.2-.7-.3-.9zM400.3 223.7v1.3c.6-1 1.5-1.5 2.7-1.5.5 0 1 .1 1.4.2s.7.4.9.6.4.6.5 1 .1.8.1 1.2v5.4h-1.4v-5.6c0-.5-.1-.9-.4-1.2-.3-.3-.7-.4-1.2-.4-.4 0-.8.1-1.1.2s-.6.3-.8.5c-.2.2-.4.5-.5.8-.1.3-.2.7-.2 1v4.7h-1.3v-8.3h1.3zM415.9 223.7v1.2h-1.6v5.5c0 .1.1.2.2.2.1.1.2.1.3.1h1.1v1.2h-1c-.4 0-.7 0-.9-.1s-.5-.1-.6-.3c-.2-.1-.3-.3-.3-.5s-.1-.5-.1-.9v-5.3h-1.4v-1.2h1.4v-2.5h1.4v2.5h1.5zM418.7 223.7v1.7c.3-.7.7-1.2 1.2-1.5.5-.3 1.1-.5 1.8-.4v1.4c-.5 0-1 .1-1.4.2s-.7.4-.9.7c-.2.3-.4.6-.5 1-.1.4-.2.9-.2 1.4v3.7h-1.4v-8.3h1.4zM430.1 232c-.2.1-.6.2-1 .2s-.6-.1-.8-.3-.3-.5-.3-1c-.4.4-.8.8-1.3 1s-1 .3-1.6.3c-.4 0-.7 0-1.1-.1s-.6-.2-.9-.4c-.2-.2-.4-.4-.6-.7-.1-.3-.2-.6-.2-1.1 0-.5.1-.9.2-1.2.2-.3.4-.5.6-.7.3-.2.6-.3.9-.4.3-.1.7-.2 1-.2l1.1-.2s.6-.1.9-.2c.3-.1.5-.2.6-.3.1-.1.2-.3.2-.6s-.1-.5-.2-.7c-.1-.2-.3-.3-.4-.4-.2-.1-.4-.2-.6-.2h-.6c-.6 0-1.1.1-1.4.3s-.6.6-.6 1.2h-1.4c0-.5.1-.9.3-1.3.2-.4.4-.6.8-.9.3-.2.7-.4 1.1-.5.4-.1.9-.1 1.3-.1s.7 0 1.1.1c.4.1.7.2 1 .3s.5.4.7.7.3.7.3 1.2v4.2c0 .3 0 .6.1.7 0 .1.2.2.4.2.1 0 .3 0 .4-.1v1.2zm-2.2-4.3c-.2.1-.4.2-.7.3s-.6.1-.9.1-.6.1-.9.1-.6.1-.8.2c-.2.1-.4.3-.6.5-.2.2-.2.5-.2.8 0 .2 0 .4.1.6.1.2.2.3.4.4.1.1.3.2.5.2l.6.1c.4 0 .8-.1 1.2-.2.3-.1.6-.3.8-.5.2-.2.4-.4.4-.6.1-.2.1-.4.1-.6v-1.4zM436.3 225.2c-.3-.3-.8-.4-1.4-.4-.5 0-.9.1-1.2.3-.3.2-.6.4-.8.7-.2.3-.3.6-.4 1-.1.4-.1.8-.1 1.2 0 .4 0 .8.1 1.1.1.4.2.7.4 1 .2.3.4.5.8.7.3.2.7.3 1.1.3.7 0 1.2-.2 1.6-.5.4-.4.6-.8.7-1.5h1.4c-.1 1-.5 1.8-1.1 2.4-.6.6-1.4.8-2.5.8-.6 0-1.2-.1-1.7-.3s-.9-.5-1.2-.9c-.3-.4-.6-.8-.7-1.3-.2-.5-.2-1.1-.2-1.7 0-.6.1-1.2.2-1.7.2-.5.4-1 .7-1.4.3-.4.7-.7 1.2-.9s1.1-.3 1.7-.3c.5 0 .9.1 1.3.2s.8.3 1.1.5c.3.2.6.5.8.9.2.4.3.8.4 1.3h-1.5c-.1-.8-.4-1.2-.7-1.5zM441.4 220.6v6.8l3.8-3.6h1.8l-3.3 3 3.5 5.3h-1.7l-2.8-4.3-1.3 1.2v3.1h-1.4v-11.4h1.4zM448.3 222.2v-1.7h1.4v1.7h-1.4zm1.4 1.5v8.3h-1.4v-8.3h1.4zM453.1 223.7v1.3c.6-1 1.5-1.5 2.7-1.5.5 0 1 .1 1.4.2s.7.4.9.6.4.6.5 1 .1.8.1 1.2v5.4h-1.4v-5.6c0-.5-.1-.9-.4-1.2-.3-.3-.7-.4-1.2-.4-.4 0-.8.1-1.1.2s-.6.3-.8.5c-.2.2-.4.5-.5.8-.1.3-.2.7-.2 1v4.7h-1.4v-8.3h1.4zM466.9 234.3c-.6.7-1.6 1-2.9 1-.4 0-.8 0-1.2-.1-.4-.1-.8-.2-1.1-.4-.3-.2-.6-.4-.8-.8-.2-.3-.3-.7-.4-1.1h1.4c0 .2.1.5.2.6.1.2.3.3.5.4s.4.2.7.2l.7.1c.4 0 .8-.1 1.1-.2.3-.2.6-.4.8-.6.2-.3.3-.6.4-1 .1-.4.1-.8.1-1.3v-.5c-.2.5-.6.9-1.1 1.1-.5.2-1 .4-1.5.4-.6 0-1.2-.1-1.6-.3-.5-.2-.8-.5-1.2-.9-.3-.4-.5-.8-.7-1.3-.2-.5-.2-1-.2-1.6 0-.5.1-1 .2-1.5s.3-1 .6-1.4c.3-.4.7-.8 1.2-1 .5-.3 1.1-.4 1.8-.4.5 0 1 .1 1.4.3s.8.6 1 1v-1.2h1.3v7.6c.2 1.3-.1 2.3-.7 2.9zm-1.7-3.7c.3-.2.6-.4.8-.7s.3-.6.4-1c.1-.4.1-.8.1-1.2 0-.4 0-.7-.1-1.1-.1-.4-.2-.7-.4-1-.2-.3-.4-.5-.7-.7s-.7-.3-1.1-.3c-.4 0-.8.1-1.1.2-.3.2-.6.4-.8.7s-.3.6-.4 1c-.1.4-.1.7-.1 1.1 0 .4 0 .7.1 1.1.1.4.2.7.4 1s.4.5.7.7.7.3 1.1.3.7.1 1.1-.1z"/></g><path class="st6" d="M67.6 103.5l20.4-9h228.6l20.1 9h-269.1zm269.9 61c0 1.1-.9 2-2 2h-267c-1.1 0-2-.9-2-2v-59c0-1.1.9-2 2-2h267c1.1 0 2 .9 2 2v59z"/><path class="st7" d="M290 145.5h33m-33-9h33m-33 19h33"/><circle class="st8" cx="306.3" cy="121.6" r="3.8"/><path class="st8" d="M306.3 118.3c1.8 0 3.3 1.5 3.3 3.3s-1.5 3.3-3.3 3.3-3.3-1.5-3.3-3.3c0-1.9 1.5-3.3 3.3-3.3m0-1c-2.4 0-4.3 1.9-4.3 4.3s1.9 4.3 4.3 4.3 4.3-1.9 4.3-4.3-1.9-4.3-4.3-4.3z"/><circle class="st8" cx="292.4" cy="121.6" r="3.8"/><path class="st8" d="M292.4 118.3c1.8 0 3.3 1.5 3.3 3.3s-1.5 3.3-3.3 3.3-3.3-1.5-3.3-3.3 1.5-3.3 3.3-3.3m0-1c-2.4 0-4.3 1.9-4.3 4.3s1.9 4.3 4.3 4.3 4.3-1.9 4.3-4.3-1.9-4.3-4.3-4.3z"/><circle class="st9" cx="320.6" cy="121.6" r="3.7"/><path class="st8" d="M320.6 118.8c1.5 0 2.7 1.2 2.7 2.7s-1.2 2.7-2.7 2.7-2.7-1.2-2.7-2.7c-.1-1.4 1.1-2.7 2.7-2.7m0-2c-2.6 0-4.7 2.1-4.7 4.7s2.1 4.7 4.7 4.7 4.7-2.1 4.7-4.7c0-2.5-2.1-4.7-4.7-4.7z"/><path class="st5" d="M75.4 116.9h38.5v39.8h-38.5v-39.8z"/><path class="st8" d="M88.9 146.4h-3.1v3.1h9.9v-3.1h-3.2v-6.1h2.8c3.5 0 5.8-.4 7.5-2.1 1.1-1.1 2.1-3 2.1-5.5 0-3.1-1.4-7.6-8.2-7.6h-10.8v2.9h3.1l-.1 18.4zm3.6-9.1v-9.1h4.2c2.7 0 4.3 1.6 4.3 4.5 0 2.5-1 4.6-5.5 4.6h-3z"/><path class="st5" d="M122.1 116.3h155.2v40.4h-155.2v-40.4z"/><circle class="st8" cx="166.5" cy="128.1" r="2.8"/><circle class="st8" cx="177.7" cy="128.1" r="2.8"/><circle class="st8" cx="189" cy="128.1" r="2.8"/><circle class="st8" cx="200.2" cy="128.1" r="2.8"/><circle class="st8" cx="172.1" cy="137.1" r="2.8"/><circle class="st8" cx="183.4" cy="137.1" r="2.8"/><circle class="st8" cx="194.6" cy="137.1" r="2.8"/><circle class="st8" cx="205.8" cy="137.1" r="2.8"/><circle class="st8" cx="211.4" cy="128.1" r="2.8"/><circle class="st8" cx="166.5" cy="146.1" r="2.8"/><circle class="st8" cx="177.7" cy="146.1" r="2.8"/><circle class="st8" cx="144.1" cy="128.1" r="2.8"/><circle class="st8" cx="155.3" cy="128.1" r="2.8"/><circle class="st8" cx="149.7" cy="137.1" r="2.8"/><circle class="st8" cx="160.9" cy="137.1" r="2.8"/><circle class="st8" cx="144.1" cy="146.1" r="2.8"/><circle class="st8" cx="155.3" cy="146.1" r="2.8"/><circle class="st8" cx="132.8" cy="128.1" r="2.8"/><circle class="st8" cx="144.1" cy="128.1" r="2.8"/><circle class="st8" cx="138.5" cy="137.1" r="2.8"/><circle class="st8" cx="132.8" cy="146.1" r="2.8"/><circle class="st8" cx="144.1" cy="146.1" r="2.8"/><circle class="st8" cx="189" cy="146.1" r="2.8"/><circle class="st8" cx="200.2" cy="146.1" r="2.8"/><circle class="st8" cx="211.4" cy="146.1" r="2.8"/><circle class="st8" cx="222.7" cy="128.1" r="2.8"/><circle class="st8" cx="233.9" cy="128.1" r="2.8"/><circle class="st8" cx="217" cy="137.1" r="2.8"/><circle class="st8" cx="228.3" cy="137.1" r="2.8"/><circle class="st8" cx="239.5" cy="137.1" r="2.8"/><circle class="st8" cx="245.1" cy="128.1" r="2.8"/><circle class="st8" cx="222.7" cy="146.1" r="2.8"/><circle class="st8" cx="233.9" cy="146.1" r="2.8"/><circle class="st8" cx="245.1" cy="146.1" r="2.8"/><circle class="st8" cx="256.3" cy="128.1" r="2.8"/><circle class="st8" cx="250.7" cy="137.1" r="2.8"/><circle class="st8" cx="261.9" cy="137.1" r="2.8"/><circle class="st8" cx="267.6" cy="128.1" r="2.8"/><circle class="st8" cx="256.3" cy="146.1" r="2.8"/><circle class="st8" cx="267.6" cy="146.1" r="2.8"/><path class="st10" d="M515.3 103.5l20.4-9h226.6l22.1 9h-269.1zm270.2 61c0 1.1-.9 2-2 2h-267c-1.1 0-2-.9-2-2v-59c0-1.1.9-2 2-2h267c1.1 0 2 .9 2 2v59z"/><path class="st7" d="M738 145.5h36m-36-9h36m-36 19h36"/><circle class="st11" cx="756" cy="121.6" r="3.8"/><circle class="st8" cx="742.1" cy="121.6" r="3.8"/><path class="st8" d="M742.1 118.3c1.8 0 3.3 1.5 3.3 3.3s-1.5 3.3-3.3 3.3-3.3-1.5-3.3-3.3 1.5-3.3 3.3-3.3m0-1c-2.4 0-4.3 1.9-4.3 4.3s1.9 4.3 4.3 4.3 4.3-1.9 4.3-4.3-1.9-4.3-4.3-4.3z"/><circle class="st8" cx="770.2" cy="121.6" r="3.8"/><path class="st8" d="M770.2 118.3c1.8 0 3.3 1.5 3.3 3.3s-1.5 3.3-3.3 3.3-3.3-1.5-3.3-3.3c0-1.9 1.5-3.3 3.3-3.3m0-1c-2.4 0-4.3 1.9-4.3 4.3s1.9 4.3 4.3 4.3 4.3-1.9 4.3-4.3-1.9-4.3-4.3-4.3z"/><path class="st5" d="M524.9 116.3h202.1v40.4h-202.1v-40.4z"/><circle class="st8" cx="616.2" cy="128.1" r="2.8"/><circle class="st8" cx="627.4" cy="128.1" r="2.8"/><circle class="st8" cx="638.7" cy="128.1" r="2.8"/><circle class="st8" cx="649.9" cy="128.1" r="2.8"/><circle class="st8" cx="621.8" cy="137.1" r="2.8"/><circle class="st8" cx="633" cy="137.1" r="2.8"/><circle class="st8" cx="644.3" cy="137.1" r="2.8"/><circle class="st8" cx="655.5" cy="137.1" r="2.8"/><circle class="st8" cx="661.1" cy="128.1" r="2.8"/><circle class="st8" cx="616.2" cy="146.1" r="2.8"/><circle class="st8" cx="627.4" cy="146.1" r="2.8"/><circle class="st8" cx="593.7" cy="128.1" r="2.8"/><circle class="st8" cx="605" cy="128.1" r="2.8"/><circle class="st8" cx="599.4" cy="137.1" r="2.8"/><circle class="st8" cx="610.6" cy="137.1" r="2.8"/><circle class="st8" cx="593.7" cy="146.1" r="2.8"/><circle class="st8" cx="605" cy="146.1" r="2.8"/><circle class="st8" cx="582.5" cy="128.1" r="2.8"/><circle class="st8" cx="593.7" cy="128.1" r="2.8"/><circle class="st8" cx="588.1" cy="137.1" r="2.8"/><circle class="st8" cx="582.5" cy="146.1" r="2.8"/><circle class="st8" cx="593.7" cy="146.1" r="2.8"/><circle class="st8" cx="571.2" cy="128.1" r="2.8"/><circle class="st8" cx="576.8" cy="137.1" r="2.8"/><circle class="st8" cx="571.2" cy="146.1" r="2.8"/><circle class="st8" cx="548.7" cy="128.1" r="2.8"/><circle class="st8" cx="560" cy="128.1" r="2.8"/><circle class="st8" cx="554.4" cy="137.1" r="2.8"/><circle class="st8" cx="565.6" cy="137.1" r="2.8"/><circle class="st8" cx="548.7" cy="146.1" r="2.8"/><circle class="st8" cx="560" cy="146.1" r="2.8"/><circle class="st8" cx="537.5" cy="128.1" r="2.8"/><circle class="st8" cx="548.7" cy="128.1" r="2.8"/><circle class="st8" cx="543.1" cy="137.1" r="2.8"/><circle class="st8" cx="537.5" cy="146.1" r="2.8"/><circle class="st8" cx="548.7" cy="146.1" r="2.8"/><circle class="st8" cx="638.7" cy="146.1" r="2.8"/><circle class="st8" cx="649.9" cy="146.1" r="2.8"/><circle class="st8" cx="661.1" cy="146.1" r="2.8"/><circle class="st8" cx="672.3" cy="128.1" r="2.8"/><circle class="st8" cx="683.6" cy="128.1" r="2.8"/><circle class="st8" cx="666.7" cy="137.1" r="2.8"/><circle class="st8" cx="677.9" cy="137.1" r="2.8"/><circle class="st8" cx="689.2" cy="137.1" r="2.8"/><circle class="st8" cx="694.8" cy="128.1" r="2.8"/><circle class="st8" cx="672.3" cy="146.1" r="2.8"/><circle class="st8" cx="683.6" cy="146.1" r="2.8"/><circle class="st8" cx="694.8" cy="146.1" r="2.8"/><circle class="st8" cx="706" cy="128.1" r="2.8"/><circle class="st8" cx="700.4" cy="137.1" r="2.8"/><circle class="st8" cx="711.6" cy="137.1" r="2.8"/><circle class="st8" cx="717.2" cy="128.1" r="2.8"/><circle class="st8" cx="706" cy="146.1" r="2.8"/><circle class="st8" cx="717.2" cy="146.1" r="2.8"/></svg>